<?xml version="1.0" encoding="utf-8"?>
<!-- Generator: Adobe Illustrator 15.1.0, SVG Export Plug-In . SVG Version: 6.00 Build 0)  -->
<!DOCTYPE svg PUBLIC "-//W3C//DTD SVG 1.1//EN" "http://www.w3.org/Graphics/SVG/1.1/DTD/svg11.dtd">
<svg version="1.1" xmlns="http://www.w3.org/2000/svg" xmlns:xlink="http://www.w3.org/1999/xlink" x="0px" y="0px"
	 width="363.039px" height="219.896px" viewBox="0 0 363.039 219.896" enable-background="new 0 0 363.039 219.896"
	 xml:space="preserve">
<g id="Background">
	<path fill="#216F91" d="M63.812,18.262c0,0,32.223-14.257,57.809-12.304c25.585,1.952,41.208,13.672,50.388,23.631
		c9.18,9.962,15.606,23.789,17.523,40.403c1.276,18.531-0.642,27.266-5.328,43.24c-4.685,15.975-6.39,25.349-8.732,37.064
		c-2.345,11.714-8.521,31.521-25.774,46.647c-19.384,15.547-56.66,21.511-83.285,14.696c-23.645-6.815-47.073-29.394-50.269-62.623
		c-0.852-20.448-3.408-32.377-6.178-43.454c-2.767-11.077-4.473-31.1,17.468-57.937C43.835,28.459,54.393,24.043,63.812,18.262z"/>
	<path fill="#156E94" d="M90.311,214.645c-8.642,0-16.701-0.942-23.95-2.798c-22.728-6.549-47.13-28.513-50.43-62.807
		c-0.863-20.755-3.523-32.833-6.173-43.425c-4.726-18.917,1.001-37.93,17.51-58.125C41.214,31.194,50.84,25.599,59.333,20.663
		c1.515-0.879,2.944-1.71,4.367-2.584c0.308-0.138,28.573-12.52,52.928-12.52c1.72,0,3.405,0.063,5.008,0.185
		c20.475,1.563,37.474,9.537,50.528,23.699c9.648,10.473,15.726,24.485,17.578,40.523c1.271,18.438-0.65,27.36-5.334,43.327
		c-4.243,14.469-6.021,23.431-8.083,33.807l-0.644,3.237c-2.669,13.343-9.321,32.285-25.844,46.769
		C136.348,207.926,113.543,214.645,90.311,214.645z M116.629,5.988c-24.266,0-52.448,12.346-52.73,12.469
		c-1.403,0.863-2.834,1.695-4.351,2.577c-8.463,4.917-18.056,10.492-31.952,26.732C11.182,67.845,5.48,86.737,10.172,105.514
		c2.654,10.614,5.319,22.715,6.184,43.497c3.28,34.088,27.534,55.919,50.116,62.429c7.209,1.843,15.231,2.78,23.838,2.78
		c23.139,0,45.846-6.683,59.253-17.438c16.426-14.4,23.042-33.249,25.699-46.525l0.645-3.237
		c2.063-10.388,3.844-19.356,8.092-33.844c4.669-15.916,6.584-24.808,5.32-43.167c-1.842-15.939-7.88-29.87-17.467-40.274
		c-12.979-14.081-29.884-22.008-50.249-23.563C120.013,6.051,118.338,5.988,116.629,5.988z"/>
	<path fill="#DCF2F7" d="M52.63,27.994c0,0,28.108-18.374,53.153-19.796c16.295-1.203,32.481,0.111,45.824,7.654
		c13.342,7.547,27.138,20.019,32.703,38.28c3.73,12.24,6.854,24.026,1.742,43.198c-3.836,14.484-5.963,26.838-9.37,37.063
		c-3.41,10.224-2.275,16.898-7.953,32.944c-5.681,16.047-22.295,30.673-45.728,39.477c-15.052,4.403-35.783,8.097-53.817,2.981
		c-18.037-5.112-39.195-18.319-48.85-47.145c-2.414-10.937-3.339-33.443-5.467-43.028c-2.13-9.584-6.237-21.312-2.556-38.766
		c1.56-7.398,4.549-11.213,7.231-15.854c2.682-4.641,5.774-12.27,11.652-18.766C37.071,39.74,40.975,35.942,52.63,27.994z"/>
	<path fill="#156E94" d="M88.469,212.49c-7.013,0-13.52-0.837-19.342-2.487c-13.683-3.88-38.242-15.181-48.995-47.283
		c-1.252-5.668-2.101-14.386-2.924-22.812c-0.781-8.024-1.521-15.604-2.549-20.237c-0.292-1.31-0.616-2.646-0.959-4.061
		c-2.132-8.77-4.785-19.683-1.598-34.798c1.282-6.077,3.561-9.812,5.762-13.423c0.5-0.821,1.001-1.644,1.492-2.492
		c0.673-1.163,1.384-2.541,2.136-3.996c2.284-4.423,5.126-9.924,9.543-14.807c5.959-6.587,9.792-10.309,21.475-18.276
		c0.284-0.186,28.445-18.424,53.261-19.833c3.513-0.258,6.914-0.392,10.107-0.392c14.505,0,26.226,2.642,35.833,8.074
		c11.63,6.579,26.761,18.582,32.801,38.403c4.02,13.183,6.697,24.744,1.744,43.315c-1.561,5.894-2.819,11.351-4.036,16.627
		c-1.778,7.714-3.315,14.376-5.336,20.446c-1.461,4.378-2.098,8.179-2.771,12.206c-0.909,5.426-1.938,11.573-5.183,20.743
		c-5.807,16.4-22.52,30.836-45.852,39.602C110.651,210.649,99.01,212.49,88.469,212.49z M115.879,8.02
		c-3.183,0-6.574,0.132-10.079,0.391C81.096,9.812,53.029,27.989,52.748,28.173c-11.641,7.939-15.459,11.645-21.395,18.206
		c-4.382,4.842-7.208,10.317-9.481,14.717c-0.754,1.461-1.467,2.843-2.145,4.015c-0.492,0.853-0.997,1.677-1.498,2.5
		c-2.185,3.583-4.442,7.285-5.709,13.292c-3.167,15.019-0.526,25.881,1.594,34.608c0.345,1.417,0.669,2.756,0.962,4.068
		c1.034,4.659,1.775,12.252,2.559,20.289c0.819,8.417,1.667,17.117,2.908,22.738c10.686,31.896,35.099,43.13,48.7,46.987
		c5.786,1.642,12.254,2.473,19.228,2.473c10.501,0,22.099-1.835,34.472-5.457c23.201-8.717,39.823-23.058,45.586-39.34
		c3.233-9.136,4.26-15.265,5.166-20.672c0.675-4.043,1.316-7.86,2.785-12.27c2.018-6.052,3.553-12.703,5.328-20.407
		c1.219-5.281,2.478-10.74,4.04-16.641c4.923-18.464,2.256-29.964-1.739-43.083c-6.001-19.687-21.043-31.615-32.604-38.155
		C141.961,10.642,130.308,8.02,115.879,8.02z"/>
	<path fill="#DCF2F7" d="M184.31,54.133c-5.565-18.262-19.36-30.732-32.702-38.28c-13.342-7.543-29.529-8.857-45.824-7.654
		C80.738,9.62,52.631,27.994,52.631,27.994c-11.655,7.949-15.559,11.745-21.437,18.241c-5.877,6.496-8.97,14.126-11.652,18.766
		c-2.682,4.641-5.671,8.456-7.231,15.854c-3.681,17.455,0.425,29.182,2.556,38.767c2.127,9.585,3.053,32.093,5.467,43.026
		c9.654,28.828,30.813,42.035,48.85,47.147c18.033,5.112,38.764,1.42,53.817-2.984c23.432-8.803,40.047-23.43,45.728-39.476
		c5.679-16.044,4.542-22.719,7.953-32.943c3.408-10.226,5.536-22.578,9.37-37.063C191.164,78.159,188.04,66.371,184.31,54.133z
		 M181.21,98.042c-3.619,13.671-5.629,25.333-8.844,34.983c-3.219,9.65-2.146,15.951-7.506,31.095
		c-5.365,15.146-21.043,28.953-43.16,37.262c-14.208,4.155-33.777,7.639-50.798,2.816c-17.023-4.827-36.995-17.291-46.109-44.5
		c-2.279-10.32-3.149-31.564-5.162-40.612c-2.011-9.048-5.886-20.117-2.411-36.592c1.471-6.985,4.294-10.584,6.825-14.965
		c2.531-4.381,5.452-11.582,10.999-17.714c5.546-6.132,9.231-9.716,20.232-17.219c0,0,26.53-17.343,50.171-18.685
		c15.382-1.134,30.658,0.104,43.252,7.226s25.614,18.893,30.867,36.131C183.087,68.824,186.034,79.949,181.21,98.042z"/>
	<path fill="#BEE3EB" enable-background="new    " d="M63.373,46.685c0,0,21.703-14.189,41.043-15.286
		c12.585-0.929,25.083,0.083,35.387,5.911c10.301,5.826,20.952,15.457,25.25,29.558c2.881,9.451,5.292,18.555,1.346,33.357
		c-2.961,11.185-4.606,20.724-7.238,28.619c-2.63,7.896-1.755,13.049-6.141,25.438c-4.384,12.391-17.215,23.686-35.306,30.483
		c-11.625,3.4-27.634,6.252-41.56,2.304c-13.924-3.949-30.263-14.145-37.72-36.403c-1.865-8.446-2.576-25.825-4.223-33.227
		c-1.644-7.403-4.814-16.457-1.972-29.935c1.206-5.714,3.513-8.66,5.585-12.244c2.07-3.585,4.458-9.475,8.999-14.493
		C51.359,55.754,54.372,52.823,63.373,46.685z"/>
	<path fill="#E2F4F9" d="M76.708,97.792c0,0-4.261-24.993,16.757-38.34c3.924-2.35,6.092-3.964,4.914-5.749
		c-1.223-1.849-10.914-0.357-17.729,11.571c-3.302,5.433-3.09,7.029-4.047,6.709c-0.959-0.32,1.702-6.39,8.837-14.804
		c3.622-4.367,3.941-5.644,2.665-6.283c-1.279-0.64-4.926,3.571-8.52,8.627c-3.41,4.794-5.008,4.687-2.665,0.321
		c2.345-4.368,6.178-8.308,10.545-11.716c4.367-3.41,5.858-3.09,3.622-0.746c-2.236,2.342-2.451,4.898,3.833,2.662
		c6.284-2.238,8.309-3.302,10.757-5.538c2.45-2.235,0.214-3.409-4.473-1.385c-4.688,2.023-5.644,2.556-6.175,1.597
		c-0.534-0.957,2.662-2.98,7.241-5.004c4.579-2.023,7.243-2.449,7.029-4.047c-0.214-1.598-4.793-1.917-11.822,1.065
		c-7.029,2.982-14.378,8.201-18.211,11.29c-3.408,3.195-3.833,1.385,0.531-2.875c4.367-4.261,9.905-7.989,10.225-10.971
		c0.32-2.98-4.404-1.427-10.971,3.408c-9.691,7.135-18.319,18.105-22.899,27.161c-1.171,3.621,0.535,4.793,4.688-1.493
		c4.153-6.283,5.433-9.265,6.177-8.521c0.746,0.745-0.64,2.557-4.581,8.627c-3.939,6.069-8.52,15.337-6.815,17.786
		c1.172,0.638,1.704,0.959,4.367-5.005c2.662-5.965,10.757-18.746,12.035-18.426c1.28,0.319-4.153,8.308-7.666,14.166
		c-3.516,5.857-7.99,16.188-9.055,21.833c-0.746,4.26,2.982,1.916,4.579-1.917c1.6-3.836,10.65-21.833,12.251-21.94
		c1.597-0.107-4.057,9.427-7.029,16.189c-5.434,12.354-5.858,18-3.516,20.129c2.342,2.128,4.579,0,5.433-6.284
		c0.853-6.284,3.407-17.893,7.241-22.153c0.96-0.853-0.426,3.088-2.127,8.202c-1.707,5.111-4.047,14.057-2.557,19.809
		C70.774,110.373,79.265,112.738,76.708,97.792z"/>
	<path fill="#C4E5EC" d="M73.638,109.476L73.638,109.476c-1.829,0-3.745-1.649-4.271-3.679c-1.614-6.224,1.253-16.011,2.56-19.93
		l0.459-1.372c0.949-2.835,1.925-5.759,1.977-6.562C70.486,82.3,68,94.213,67.227,99.916c-0.627,4.619-2.057,7.268-3.92,7.268
		c-0.614,0-1.241-0.288-1.865-0.855c-2.677-2.436-1.577-8.909,3.464-20.374c1.043-2.373,2.388-5.03,3.687-7.6
		c1.767-3.49,3.965-7.837,3.579-8.291c-1.351,0.091-10.069,16.952-12.095,21.812c-0.976,2.342-2.835,4.324-4.061,4.324
		c-0.287,0-0.528-0.11-0.704-0.317c-0.333-0.396-0.409-1.142-0.222-2.209c1.1-5.825,5.669-16.219,9.081-21.906
		c0.824-1.375,1.767-2.886,2.677-4.346c2.238-3.591,5.618-9.012,5.13-9.5l0,0c-1.225,0-9.048,12.144-11.796,18.304
		c-2.063,4.617-2.855,5.462-3.673,5.462c-0.336,0-0.632-0.163-0.976-0.35l-0.087-0.072c-1.855-2.665,3.057-12.24,6.812-18.024
		c0.549-0.848,1.049-1.61,1.5-2.3c2.566-3.918,3.626-5.541,3.107-6.061c-0.049-0.049-0.079-0.049-0.092-0.049
		c-0.391,0-1.309,1.483-2.578,3.538c-0.824,1.333-1.852,2.99-3.178,4.999c-1.942,2.939-3.56,4.557-4.557,4.557
		c-0.266,0-0.486-0.111-0.64-0.322c-0.365-0.5-0.32-1.54,0.129-2.924C61.016,54.648,70.03,43.958,78.923,37.41
		c4.287-3.157,7.845-4.968,9.758-4.968c0.552,0,0.967,0.151,1.234,0.449c0.271,0.301,0.377,0.741,0.317,1.304
		c-0.236,2.201-3.073,4.675-6.356,7.541c-1.313,1.143-2.669,2.328-3.932,3.559c-2.662,2.598-3.212,3.945-3.111,4.139
		c0.295-0.006,1.05-0.416,2.284-1.572c4.537-3.656,11.711-8.546,18.274-11.33c3.463-1.47,6.673-2.278,9.042-2.278
		c1.836,0,2.958,0.503,3.074,1.38c0.178,1.335-1.27,1.903-3.9,2.933c-0.95,0.373-2.026,0.795-3.253,1.338
		c-4.097,1.81-6.836,3.514-7.148,4.445c-0.046,0.14-0.019,0.215,0.007,0.261c0.143,0.257,0.296,0.353,0.568,0.353
		c0.632,0,1.817-0.514,4.176-1.539l1.16-0.503c1.606-0.694,3.019-1.061,4.088-1.061c0.867,0,1.446,0.26,1.627,0.731
		c0.15,0.385,0.095,1.055-1.015,2.068c-2.49,2.276-4.615,3.369-10.829,5.583c-3.146,1.121-5.015,1.155-5.456,0.129
		c-0.309-0.725,0.211-1.898,1.397-3.139c0.881-0.923,0.998-1.346,0.971-1.422c0,0-0.027-0.006-0.083-0.006
		c-0.478,0-1.871,0.652-4.225,2.489c-4.835,3.774-8.364,7.692-10.487,11.648c-1.354,2.523-1.055,2.958-1.051,2.96h0.001
		c0.312,0,1.382-0.733,3.353-3.502c2.332-3.279,6.522-8.782,8.401-8.782c0.14,0,0.272,0.028,0.388,0.086
		c0.44,0.223,0.694,0.512,0.772,0.887c0.201,0.955-0.744,2.559-3.368,5.724c-6.506,7.672-9.252,13.375-8.96,14.413
		c0.008,0.033,0.021,0.05,0.026,0.053c0.055,0.019,0.103,0.027,0.143,0.027c0.23-0.001,0.439-0.457,0.857-1.369
		c0.474-1.031,1.27-2.761,2.797-5.276c5.573-9.754,12.869-12.333,15.948-12.333c1.058,0,1.818,0.269,2.141,0.754
		c0.32,0.487,0.424,0.988,0.31,1.492c-0.309,1.353-2.098,2.647-5.292,4.56C72.918,72.75,76.873,97.506,76.916,97.756
		c1.112,6.5,0.09,9.354-0.964,10.603C75.336,109.092,74.535,109.476,73.638,109.476z M74.465,77.405
		c0.096,0,0.185,0.045,0.241,0.124c0.288,0.401-0.232,2.065-1.917,7.103l-0.457,1.372c-1.295,3.882-4.137,13.575-2.553,19.689
		c0.48,1.853,2.21,3.359,3.859,3.359l0,0c0.768,0,1.456-0.334,1.989-0.967c0.995-1.182,1.956-3.918,0.871-10.258
		c-0.043-0.251-4.043-25.285,16.852-38.554c3.026-1.812,4.827-3.092,5.1-4.292c0.09-0.392,0.007-0.771-0.251-1.161
		c-0.233-0.352-0.9-0.563-1.785-0.563c-2.993,0-10.102,2.534-15.58,12.124c-1.52,2.498-2.277,4.148-2.778,5.239
		c-0.525,1.143-0.742,1.616-1.245,1.616c-0.086,0-0.177-0.017-0.278-0.05c-0.104-0.035-0.24-0.123-0.301-0.342
		c-0.365-1.304,2.575-7.173,9.044-14.801c2.463-2.968,3.443-4.574,3.278-5.361c-0.051-0.249-0.22-0.431-0.547-0.594
		c-0.057-0.028-0.121-0.042-0.195-0.042c-1.215,0-4.226,3.216-8.055,8.602c-0.788,1.108-2.725,3.684-3.681,3.684
		c-0.168,0-0.308-0.077-0.39-0.215c-0.334-0.556,0.384-2.142,1.044-3.373c2.152-4.009,5.719-7.971,10.602-11.784
		c2.099-1.639,3.735-2.578,4.486-2.578c0.315,0,0.432,0.165,0.474,0.263c0.057,0.134,0.23,0.539-1.053,1.886
		c-1.032,1.079-1.549,2.129-1.314,2.677c0.172,0.402,0.758,0.487,1.218,0.487c0.874,0,2.12-0.287,3.704-0.85
		c6.148-2.188,8.245-3.268,10.683-5.495c0.706-0.644,1.044-1.24,0.906-1.599c-0.113-0.292-0.561-0.458-1.231-0.458
		c-0.997,0-2.389,0.364-3.919,1.025l-1.159,0.501c-2.414,1.049-3.624,1.576-4.346,1.576c-0.432,0-0.721-0.177-0.942-0.573
		c-0.099-0.179-0.112-0.381-0.037-0.603c0.509-1.525,5.329-3.796,7.377-4.699c1.236-0.547,2.316-0.971,3.271-1.343
		c2.612-1.025,3.762-1.518,3.634-2.481c-0.083-0.623-1.1-1.011-2.652-1.011c-2.311,0-5.463,0.797-8.875,2.244
		c-6.521,2.768-13.657,7.631-18.161,11.258c-0.657,0.618-1.881,1.672-2.539,1.672c-0.2,0-0.352-0.095-0.418-0.261
		c-0.262-0.641,0.998-2.447,3.207-4.603c1.271-1.24,2.632-2.43,3.949-3.578c3.083-2.69,5.995-5.229,6.215-7.264
		c0.045-0.439-0.024-0.768-0.21-0.976c-0.185-0.203-0.493-0.306-0.917-0.306c-1.797,0-5.351,1.824-9.504,4.884
		c-8.845,6.511-17.807,17.141-22.834,27.084c-0.45,1.4-0.389,2.223-0.176,2.515c0.073,0.098,0.166,0.145,0.294,0.145
		c0.309,0,1.523-0.315,4.2-4.366c1.323-2.003,2.348-3.659,3.171-4.988c1.636-2.645,2.314-3.74,2.941-3.74
		c0.146,0,0.278,0.058,0.394,0.174c0.764,0.764-0.12,2.115-3.052,6.594c-0.452,0.69-0.951,1.452-1.501,2.299
		c-4.485,6.912-8.25,15.315-6.846,17.506c0.296,0.161,0.524,0.279,0.741,0.279c0.697,0,1.587-1.41,3.284-5.209
		C62.324,70.372,70.339,57.49,71.97,57.49l0.102,0.013c0.141,0.036,0.25,0.13,0.306,0.268c0.369,0.913-1.722,4.346-5.169,9.873
		c-0.909,1.459-1.85,2.969-2.673,4.34c-3.395,5.656-7.937,15.983-9.028,21.761c-0.214,1.229-0.011,1.693,0.13,1.86
		c0.092,0.112,0.217,0.165,0.376,0.165c0.932,0,2.699-1.737,3.667-4.062c1.369-3.283,10.612-21.95,12.432-22.071
		c0.001,0,0.004,0,0.006,0c0.201,0,0.334,0.072,0.414,0.203c0.44,0.715-0.993,3.624-3.562,8.705
		c-1.298,2.565-2.64,5.216-3.678,7.579c-4.889,11.118-6.056,17.624-3.567,19.887c0.545,0.493,1.075,0.744,1.58,0.744
		c1.604,0,2.913-2.58,3.499-6.899c0.781-5.767,3.31-17.842,7.293-22.267C74.247,77.459,74.358,77.405,74.465,77.405z"/>
	<path fill="#EBF8FB" enable-background="new    " d="M69.323,48.375c0,0,11.361-11.362,17.041-13.917
		c2.696-0.994,1.154,0.704-5.113,7.242c-6.533,6.815-6.815,8.663-5.682,9.37c1.137,0.711,5.966-2.98,10.938-6.673
		c4.97-3.692,16.187-9.514,19.311-8.521c0.942,0.461-0.119,1.406-4.133,3.119c-4.014,1.711-8.56,4.19-7.733,6.788
		c0.826,2.597,5.846-1.002,8.146-1.947c2.303-0.945,3.601,0.412-1.182,2.951c-4.781,2.538-11.392,4.368-9.324,1.829
		c2.067-2.539,2.24-4.78-0.592-3.896c-2.834,0.885-9.62,6.79-13.337,11.686c-3.72,4.899-3.939,7.729-2.661,7.943
		c1.279,0.212,2.699-1.065,5.681-5.112s5.467-7.101,6.318-7.101c0.854,0-1.845,3.834-5.039,8.095
		c-3.196,4.26-8.026,11.147-5.681,12.78c2.342,1.633,4.473-6.462,7.88-10.863c3.408-4.4,10.225-8.52,11.716-7.739
		c1.492,0.781-7.596,5.894-12.212,12.569c-4.616,6.673-9.304,13.313-8.129,30.46c0.531,6.497,0,10.224-2.982,9.903
		c-2.982-0.318-2.982-9.903,0-19.384c2.982-9.476,4.365-14.377,0.957-11.288c-3.408,3.088-6.075,13.931-7.241,20.235
		c-1.065,5.751-2.129,8.203-3.622,7.563c-1.491-0.641-1.171-7.669,2.982-16.721c4.153-9.053,8.2-15.549,8.094-19.171
		c-0.105-3.622-6.389,4.473-10.119,12.462c-3.728,7.986-5.004,12.249-6.388,12.035c-1.384-0.213,4.153-13.526,9.904-23.431
		c5.752-9.905,7.99-12.78,5.858-13.632c-2.132-0.852-9.48,10.224-12.462,16.72c-2.982,6.498-4.368,6.604-2.236,0.64
		c2.132-5.962,8.628-13.633,10.117-18.105c1.494-4.473-2.022-3.515-4.58,1.172c-2.555,4.687-5.857,9.477-6.814,9.477
		C56.045,65.911,61.087,55.867,69.323,48.375z"/>
	<path fill="#E1F4F8" d="M157.08,107.306c-3.686,6.168-3.973,8.236-1.56,7.242s5.536-8.521,6.675-8.663
		c1.134-0.142,0.994,2.555-3.125,9.941c-4.119,7.386-10.651,12.355-11.788,11.502c-1.137-0.853,2.556-4.686,4.119-7.242
		c1.565-2.555,0.285-4.828-4.827,1.705c-12.639,14.911-27.688,15.619-28.259,14.483c-0.568-1.135,0.711-2.271,8.377-5.964
		c7.669-3.691,17.183-9.655,18.462-12.921c1.277-3.267-0.568-3.978-5.681,0.992c-5.115,4.972-19.028,13.206-28.968,13.065
		c-9.942-0.143-8.095-4.828-0.428-4.828c14.625-1.137,23.575-9.372,23.007-9.798c-0.568-0.427-1.279,0.285-8.805,4.118
		c-11.503,5.256-19.879,2.839-19.879,0.993c0-2.702,3.549-2.556,12.353-3.975c8.806-1.42,19.882-5.113,28.117-15.904
		c9.231-14.484-0.143-31.668-0.143-31.668c-1.988-5.681,1.279-6.107,3.835-2.699c2.557,3.41,5.821,14.484,4.121,23.572
		c-1.562,5.398-1.562,5.824-0.711,5.964c0.851,0.142,2.414-6.672,3.265-12.496c0.854-5.821,4.119-6.958,4.262-0.568
		c0.143,6.392-4.402,18.746-6.958,21.443c-2.271,2.556-2.556-0.142-2.271-3.124c0.283-2.982-0.438-2.881-1.99-0.71
		c-2.131,2.982-4.116,5.113-5.964,6.674c-1.845,1.563-1.282,2.879,1.562,0.568c2.51-2.037,3.514-3.302,4.34-2.953
		c0.829,0.35,0.175,1.786-1.262,3.966c-1.439,2.178-0.807,3.743,0.687,3.673c1.491-0.072,5.253-2.843,8.094-8.878
		c2.839-6.035,6.921-12.496,5.856-23.465c-1.065-10.969-3.299-12.354-4.153-7.349c-0.851,5.006-2.556,5.538-4.259,0.427
		c-1.705-5.113-4.475-8.947-7.774-13.631c-3.302-4.688-1.065-7.029,2.556-3.728c3.619,3.3,6.704,12.033,8.731,11.715
		c2.025-0.32-0.425-4.9-1.702-7.987c-1.282-3.089,0-5.964,3.191-2.662c3.196,3.302,6.498,10.649,7.561,18.85
		c1.07,8.202,1.176,24.176-2.02,25.135c-1.917,0.213-1.065-2.023-0.746-5.111c0.32-3.09-0.105-3.941-0.854-1.386
		C161.379,98.182,160.348,101.84,157.08,107.306z"/>
	<path fill="#C5E5ED" d="M120.07,136.851c-1.129,0-1.786-0.161-1.946-0.481c-0.155-0.313-0.182-0.611-0.079-0.916
		c0.371-1.088,2.529-2.434,8.554-5.335c8.083-3.89,17.156-9.743,18.356-12.808c0.392-0.999,0.482-1.764,0.251-2.104
		c-0.091-0.133-0.238-0.198-0.448-0.198c-0.455,0-1.865,0.344-5.137,3.525c-4.847,4.711-18.634,13.128-28.862,13.129l-0.257-0.003
		c-5.201-0.076-7.046-1.364-7.038-2.546c0.008-1.313,2.33-2.707,6.613-2.707c13.569-1.055,22.234-8.331,22.793-9.465
		c-0.327-0.123-1.05,0.291-3.203,1.433c-1.233,0.653-2.923,1.547-5.292,2.754c-5.804,2.652-10.438,3.21-13.305,3.21
		c-1.923,0-3.688-0.26-4.969-0.731c-1.216-0.445-1.914-1.057-1.914-1.674c0-2.358,2.335-2.694,7.974-3.501
		c1.333-0.19,2.844-0.407,4.557-0.685c12.206-1.969,21.358-7.144,27.981-15.823c9.049-14.197-0.066-31.263-0.16-31.436
		c-0.962-2.736-0.662-4.003-0.246-4.588c0.271-0.384,0.672-0.585,1.159-0.585c0.999,0,2.227,0.839,3.28,2.245
		c2.404,3.205,5.949,14.183,4.158,23.74c-1.048,3.629-1.446,5.199-1.213,5.572c0.04,0.062,0.108,0.107,0.33,0.143
		c0.581-0.189,2.037-5.611,3.019-12.316c0.436-2.984,1.589-5.066,2.802-5.066c1.115,0,1.818,1.691,1.882,4.524
		c0.145,6.519-4.471,18.907-7.017,21.596c-0.974,1.097-1.739,1.342-2.214,0.818c-0.489-0.538-0.632-1.92-0.423-4.11
		c0.145-1.512-0.005-1.923-0.106-2.033c-0.022-0.026-0.034-0.027-0.052-0.027c-0.113,0-0.482,0.146-1.446,1.497
		c-1.991,2.787-3.954,4.982-5.999,6.712c-0.856,0.722-1.036,1.262-0.986,1.396c0.015,0.037,0.079,0.044,0.133,0.044
		c0.155,0,0.77-0.086,2.143-1.201c0.672-0.545,1.228-1.027,1.715-1.454c1.385-1.202,2.141-1.823,2.842-1.53
		c0.229,0.096,0.384,0.267,0.453,0.495c0.194,0.647-0.275,1.743-1.619,3.787c-0.733,1.108-0.967,2.153-0.62,2.793
		c0.192,0.355,0.559,0.553,1.033,0.553l0.084-0.003c1.351-0.066,5.061-2.7,7.91-8.755c0.352-0.743,0.718-1.495,1.095-2.257
		c2.657-5.408,5.671-11.538,4.741-21.096c-0.76-7.854-2.035-9.929-2.601-9.929c-0.317,0-0.802,0.679-1.129,2.595
		c-0.472,2.782-1.188,4.192-2.125,4.193c-0.864,0-1.717-1.257-2.546-3.735c-1.634-4.906-4.308-8.698-7.403-13.092l-0.339-0.486
		c-1.442-2.043-1.983-3.874-1.452-4.897c0.236-0.458,0.679-0.71,1.245-0.71c0.854,0,1.948,0.567,3.078,1.601
		c1.72,1.568,3.316,4.335,4.724,6.778c1.491,2.584,2.889,5.02,3.831,4.884c0.233-0.037,0.384-0.134,0.477-0.308
		c0.5-0.916-0.684-3.596-1.636-5.751c-0.251-0.57-0.495-1.125-0.707-1.638c-0.627-1.509-0.679-3.014-0.133-3.829
		c0.261-0.389,0.637-0.594,1.093-0.594c0.73,0,1.599,0.515,2.583,1.533c2.967,3.064,6.473,10.117,7.617,18.972
		c1.053,8.072,1.238,24.344-2.172,25.366c-0.13,0.017-0.216,0.023-0.298,0.023c-0.386,0-0.681-0.117-0.878-0.344
		c-0.477-0.554-0.312-1.651-0.086-3.166c0.081-0.557,0.177-1.189,0.246-1.851c0.165-1.582,0.106-2.311,0.04-2.575
		c-0.077,0.133-0.239,0.467-0.475,1.271l-0.047,0.156c-0.76,2.613-1.803,6.193-5.014,11.575c-2.967,4.966-3.282,6.55-3.026,7.005
		c0.037,0.066,0.113,0.151,0.342,0.151l0,0c0.211,0,0.5-0.073,0.859-0.221c1.304-0.538,2.913-3.223,4.205-5.38
		c1.235-2.06,1.958-3.228,2.524-3.298c0.302-0.037,0.548,0.082,0.694,0.329c0.629,1.073-0.687,4.69-3.604,9.928
		c-1.705,3.056-4.023,6.042-6.532,8.411c-2.118,2.003-4.121,3.295-5.1,3.295c-0.189,0-0.347-0.046-0.47-0.136
		c-0.162-0.123-0.261-0.29-0.288-0.502c-0.133-0.92,1.144-2.615,2.495-4.407c0.677-0.898,1.378-1.827,1.86-2.614
		c0.601-0.981,0.687-1.761,0.514-2.069c-0.039-0.071-0.118-0.167-0.317-0.167c-0.332,0-1.641,0.302-4.677,4.182
		C136.734,133.731,124.919,136.851,120.07,136.851z M144.759,114.583c0.443,0,0.679,0.209,0.8,0.385
		c0.32,0.471,0.251,1.335-0.207,2.499c-1.285,3.28-10.525,9.164-18.568,13.037c-5.757,2.772-8.016,4.151-8.335,5.089
		c-0.066,0.194-0.049,0.377,0.057,0.587c0.044,0.063,0.428,0.246,1.564,0.246c4.781,0,16.438-3.088,26.343-14.773
		c2.185-2.795,3.966-4.338,5.004-4.338c0.308,0,0.554,0.136,0.691,0.385c0.291,0.521,0.083,1.501-0.524,2.498
		c-0.492,0.808-1.198,1.743-1.88,2.65c-1.183,1.568-2.521,3.345-2.416,4.093c0.015,0.097,0.054,0.167,0.123,0.219
		c0.059,0.044,0.15,0.053,0.217,0.053c1.705,0,7.494-4.737,11.258-11.487c4.261-7.639,3.754-9.258,3.609-9.505
		c-0.062-0.102-0.146-0.134-0.273-0.121c-0.389,0.048-1.355,1.666-2.211,3.094c-1.393,2.326-2.972,4.961-4.409,5.553
		c-0.413,0.173-0.748,0.254-1.021,0.254l0,0c-0.413,0-0.615-0.198-0.708-0.367c-0.32-0.563-0.266-1.919,3.029-7.434
		c3.186-5.334,4.219-8.884,4.975-11.475l0.044-0.155c0.425-1.46,0.696-1.661,0.92-1.661c0.089,0,0.172,0.04,0.239,0.111
		c0.313,0.346,0.231,1.832,0.108,3.018c-0.069,0.669-0.163,1.306-0.249,1.869c-0.202,1.351-0.362,2.418-0.012,2.823
		c0.143,0.167,0.394,0.229,0.77,0.185c2.772-0.834,3.033-15.68,1.835-24.896c-0.967-7.464-4.052-15.164-7.504-18.729
		c-1.119-1.159-1.855-1.402-2.275-1.402c-0.31,0-0.559,0.136-0.738,0.405c-0.46,0.69-0.394,2.069,0.172,3.431
		c0.209,0.509,0.453,1.061,0.704,1.626c1.09,2.473,2.219,5.029,1.619,6.128c-0.157,0.289-0.423,0.468-0.782,0.524
		c-1.22,0.173-2.556-2.127-4.269-5.092c-1.393-2.415-2.97-5.152-4.643-6.676c-1.053-0.96-2.042-1.49-2.792-1.49
		c-0.409,0-0.702,0.161-0.866,0.481c-0.352,0.679-0.163,2.207,1.422,4.455l0.342,0.488c3.115,4.42,5.801,8.237,7.459,13.2
		c1.036,3.109,1.84,3.443,2.141,3.443c0.659,0,1.296-1.436,1.705-3.838c0.229-1.346,0.684-2.951,1.547-2.951
		c1.287,0,2.392,3.76,3.026,10.315c0.942,9.68-2.099,15.867-4.783,21.325c-0.374,0.763-0.74,1.511-1.09,2.252
		c-2.829,6.004-6.611,8.918-8.276,9l-0.106,0.003c-0.64,0-1.139-0.277-1.41-0.776c-0.426-0.794-0.192-1.971,0.64-3.229
		c0.443-0.669,1.786-2.708,1.57-3.428c-0.035-0.107-0.099-0.177-0.212-0.224c-0.497-0.211-1.198,0.418-2.396,1.459
		c-0.492,0.427-1.051,0.913-1.727,1.46c-1.029,0.836-1.885,1.296-2.409,1.296c-0.264,0-0.458-0.118-0.534-0.323
		c-0.16-0.438,0.266-1.154,1.11-1.869c2.02-1.707,3.958-3.877,5.927-6.636c0.839-1.172,1.375-1.673,1.796-1.673
		c0.141,0,0.271,0.058,0.367,0.166c0.185,0.203,0.376,0.656,0.217,2.361c-0.189,1.978-0.079,3.356,0.312,3.783
		c0.079,0.088,0.165,0.13,0.271,0.13c0.216,0,0.617-0.165,1.316-0.949c2.51-2.651,7.046-14.864,6.901-21.297
		c-0.066-3.033-0.824-4.109-1.454-4.109c-0.822,0-1.934,1.648-2.381,4.702c-0.02,0.128-1.922,12.681-3.45,12.681l-0.064-0.005
		c-0.233-0.039-0.472-0.107-0.617-0.338c-0.328-0.521-0.047-1.724,1.161-5.896c1.068-5.702-0.015-17.956-4.084-23.385
		c-0.962-1.281-2.086-2.074-2.94-2.074c-0.347,0-0.62,0.135-0.814,0.406c-0.497,0.702-0.394,2.223,0.291,4.17
		c0.079,0.142,9.315,17.428,0.121,31.852c-6.702,8.784-15.943,14.013-28.262,16c-1.718,0.276-3.23,0.493-4.564,0.685
		c-5.383,0.771-7.611,1.089-7.611,3.079c0,0.327,0.43,0.832,1.636,1.275c1.234,0.453,2.947,0.704,4.822,0.704
		c2.826,0,7.395-0.549,13.12-3.165c2.36-1.203,4.047-2.097,5.278-2.75c2.118-1.12,2.827-1.497,3.294-1.497
		c0.167,0,0.31,0.049,0.451,0.153c0.044,0.033,0.15,0.139,0.091,0.341c-0.401,1.389-9.376,8.764-23.21,9.84
		c-3.829,0-6.195,1.185-6.204,2.284c-0.006,1.006,2.037,2.051,6.619,2.118l0.251,0.001c10.112,0,23.765-8.339,28.565-13.006
		C141.78,115.844,143.657,114.583,144.759,114.583z"/>
	<path fill="#EAF7FA" enable-background="new    " d="M148.039,62.674c0,0-3.654-4.92-2.303-5.635
		c1.348-0.716,5.24,5.002,7.939,10.479c2.699,5.479,5.932,2.627,4.365-1.906c-1.88-5.451-2.52-7.474-0.923-7.049
		c1.599,0.426,9.479,12.105,8.626,31.702c-0.563,9.657-1.843,11.502-1.558,6.533c0.283-4.97-1.254-5.243-2.839-0.994
		c-2.694,7.207-5.925,13.012-8.104,16.706c-1.712,2.903,0.659,5.872,4.025,1.585c3.363-4.289,3.826-6.003,4.355-6.003
		c0.526,0-2.707,7.19-7.524,12.929c-4.814,5.739-6.067,5.41-3.097,1.122c2.967-4.287,1.779-7.192-1.188-4.685
		c-2.97,2.507-6.434,6.819-13.463,11.575c-7.029,4.758-14.555,6.887-15.195,5.893c-0.637-0.994,14.555-6.459,22.295-13.772
		c4.119-4.544,3.781-9.737-0.711-6.677c-6.247,4.262-14.059,13.279-30.034,15.692c-6.533,0.994-9.514-2.129-2.271-2.841
		c7.242-0.708,18.744-4.047,24.068-10.508c1.705-2.415-0.497-2.06-4.542,0.142c-4.05,2.202-14.059,6.39-20.024,5.893
		c-5.964-0.496-3.693-2.483,4.898-3.549c8.593-1.064,18.105-4.403,25.277-10.721c7.169-6.319,13.596-16.046,6.887-35.75
		c-2.448-5.111-0.758-7.392,1.813-2.77c3.193,5.751,4.153,17.892,1.703,25.773c-0.743,2.769,1.919,3.94,3.622-0.744
		c1.705-4.687,1.599-12.569,3.408-12.886c1.811-0.321-0.637,12.354-3.728,18.744c-3.088,6.388-2.448,2.874-2.342-0.107
		c0.106-2.982-2.136-1.954-3.513-0.106c-2.83,3.794-6.34,7.62-7.76,9c-1.422,1.381,0.59,2.328,2.957,0.513
		c2.367-1.815,3.983-3.509,4.382-3.274c0.394,0.237-1.144,2.801-2.015,4.338c-0.868,1.538,1.105,4.064,3.868,2.33
		c2.761-1.738,7.479-6.694,11.81-20.043c1.988-6.533,1.277-15.478,0.143-19.738c-1.137-4.261-3.622-4.261-4.404-1.348
		c-0.78,2.91-1.206,4.827-2.911,0.708C152.325,69.107,150.351,65.685,148.039,62.674z"/>
</g>
<g id="Layer_3">
	<path fill="#668895" d="M142.74,75.499c-3.265-7.953-14.199-18.32-34.79-14.486c0,0-17.183,3.124-23.43,17.468
		c-4.12,10.365-5.398,19.878,6.104,28.827c5.114,4.117,17.326,9.088,36.923,1.704C147.143,101.628,146.004,83.45,142.74,75.499z
		 M125.918,105.831c-17.392,6.553-28.228,2.142-32.764-1.512c-10.208-7.938-9.074-16.381-5.42-25.58
		c5.546-12.729,20.792-15.501,20.792-15.501c18.272-3.402,27.973,5.798,30.872,12.854C142.299,83.15,143.308,99.277,125.918,105.831
		z"/>
	<path fill="#DCF2F7" d="M83.712,79.651c-4.419,11.123-5.789,21.33,6.552,30.928c5.485,4.419,18.585,9.751,39.611,1.829
		c21.023-7.922,19.806-27.425,16.3-35.955c-3.504-8.533-15.234-19.656-37.327-15.54C108.849,60.913,90.417,64.265,83.712,79.651z"/>
	<path fill="#DCF2F7" d="M76.26,170.842c-9.822-2.254-13.217-9.775-13.217-9.775c-5.421-10.137-11.054-6.854-12.934-3.195
		c-2.824,6.768,2.855,17.672,12.546,24.598c13.458,8.279,22.024,5.103,23.36-0.777S83.193,172.244,76.26,170.842z"/>
	<path fill="#215266" d="M107.573,59.156c0,0-18.433,3.352-25.137,18.739c-4.418,11.122-5.789,21.333,6.552,30.93
		c5.484,4.417,18.585,9.749,39.612,1.828c21.023-7.923,19.806-27.425,16.3-35.956C141.396,66.163,129.665,55.043,107.573,59.156z"/>
	<path fill="#00384F" d="M108.349,114.932C108.348,114.932,108.348,114.932,108.349,114.932
		c-10.935-0.001-17.276-4.157-19.496-5.943c-12.046-9.371-11.358-19.239-6.616-31.174c6.676-15.32,25.112-18.836,25.297-18.87
		c3.159-0.588,6.241-0.886,9.159-0.886c7.416,0,13.876,1.859,19.203,5.522c5.666,3.899,8.198,8.585,9.202,11.033
		c2.091,5.088,3.304,13.852-0.155,21.802c-2.869,6.59-8.34,11.447-16.268,14.433C121.487,113.558,114.648,114.932,108.349,114.932z
		 M116.694,58.488c-2.893,0-5.948,0.294-9.082,0.877c-0.185,0.033-18.401,3.512-24.981,18.615
		c-4.668,11.75-5.354,21.468,6.487,30.675c2.186,1.76,8.43,5.852,19.23,5.852h0.001c6.248,0,13.034-1.363,20.174-4.054
		c7.816-2.945,13.207-7.724,16.029-14.205c3.405-7.829,2.212-16.458,0.153-21.47C141.617,67.262,132.43,58.488,116.694,58.488z"/>
	<path fill="#00384F" enable-background="new    " d="M107.77,60.12c0,0-17.786,3.233-24.254,18.079
		c-4.262,10.733-5.586,20.578,6.32,29.84c5.292,4.262,17.934,9.409,38.217,1.763c20.283-7.642,19.107-26.458,15.727-34.688
		C140.397,66.881,129.082,56.15,107.77,60.12z"/>
	<path fill="#2E5C6F" d="M107.948,61.013c0,0-17.183,3.124-23.43,17.468c-4.12,10.365-5.398,19.878,6.104,28.827
		c5.114,4.117,17.326,9.088,36.924,1.704c19.597-7.382,18.458-25.561,15.193-33.512C139.474,67.546,128.541,57.179,107.948,61.013z"
		/>
	<path fill="#00384F" d="M108.671,113.016L108.671,113.016c-10.197-0.001-16.112-3.876-18.18-5.542
		C79.257,98.735,79.9,89.532,84.322,78.403c6.223-14.29,23.416-17.568,23.591-17.599c2.944-0.55,5.816-0.827,8.535-0.827
		c6.916,0,12.939,1.733,17.906,5.15c5.283,3.636,7.645,8.008,8.582,10.291c1.951,4.746,3.083,12.917-0.143,20.333
		c-2.674,6.146-7.779,10.675-15.17,13.46C120.919,111.735,114.545,113.016,108.671,113.016z M116.448,60.402
		c-2.693,0-5.539,0.275-8.459,0.819c-0.171,0.031-17.145,3.273-23.273,17.344c-4.349,10.945-4.987,19.997,6.04,28.574
		c2.036,1.641,7.854,5.45,17.915,5.45c5.823,0,12.147-1.271,18.8-3.778c7.28-2.743,12.307-7.195,14.932-13.231
		c3.171-7.294,2.06-15.333,0.14-20C137.942,64.377,125.611,60.402,116.448,60.402z"/>
	<path fill="#FFA1A1" d="M61.074,161.926c0,0,3.285,7.57,13.078,9.964c6.911,1.496,11.019,5.127,9.6,10.988
		c-1.419,5.86-10.029,8.918-23.367,0.445c-9.595-7.06-15.12-18.045-12.199-24.773C50.12,154.916,55.795,151.715,61.074,161.926z"/>
	<path fill="#A30062" d="M81.7,186.617c-5.172,4.453-14.461,1.312-21.43-3.115c-9.842-7.24-15.232-18.235-12.28-25.036
		c0.45-0.849,1.051-1.604,1.747-2.204c1.355-1.169,2.97-1.642,4.545-1.336c2.516,0.487,4.864,2.81,6.981,6.903
		c0.04,0.086,3.372,7.517,12.938,9.854c4.349,0.942,7.448,2.712,8.956,5.115c1.093,1.744,1.363,3.807,0.802,6.131
		C83.608,184.371,82.827,185.647,81.7,186.617z M50.017,156.586c-0.657,0.566-1.225,1.28-1.643,2.064
		c-2.82,6.503,2.621,17.501,12.137,24.5c6.828,4.338,15.915,7.447,20.911,3.146c1.06-0.912,1.794-2.113,2.122-3.469
		c0.534-2.207,0.282-4.158-0.749-5.804c-1.443-2.306-4.449-4.008-8.689-4.926c-9.787-2.392-13.193-10.009-13.228-10.085
		c-2.018-3.904-4.33-6.215-6.678-6.67C52.35,154.987,50.905,155.821,50.017,156.586z"/>
	<path fill="#FF6340" enable-background="new    " d="M74.152,171.889c-9.792-2.394-13.078-9.964-13.078-9.964
		c-5.279-10.211-10.956-7.01-12.888-3.376c-2.92,6.729,2.604,17.714,12.199,24.773c13.338,8.473,21.948,5.415,23.367-0.445
		C85.171,177.016,81.063,173.385,74.152,171.889z M74.84,185.736c1.591,2.967-4.373,1.742-5.653,1.397
		c-2.777-0.748-5.522-2.394-7.892-3.979c-2.319-1.555-4.476-3.329-6.411-5.346c-1.729-1.807-3.484-3.844-4.368-6.223
		c-0.521-1.399-0.684-2.903-1.205-4.301c-0.396-1.063-0.958-2.101-0.955-3.255c0.002-0.199,0.138-0.135,0.221-0.018
		c0-0.005,0.002-0.01,0.003-0.015c0.053-0.246,0.295,0.079,0.26,0.234c-0.579,2.645,3.198-0.926,3.44,0.886
		c0.13,0.969-0.291,2.101-0.512,3.028c-0.34,1.422-0.56,2.724-0.143,4.183c0.381,1.326,1.179,2.808,2.648,3.149
		c0.65,0.149,1.357,0.149,1.983,0.381c1.592,0.581,1.894,2.158,2.529,3.546c0.39,0.854,0.867,1.916,1.791,2.31
		c0.832,0.359,1.626,0.227,2.505,0.188c1.139-0.047,2.104,0.162,2.909,1.016c1.523,1.622,2.613,4.215,5.218,2.84
		C72.246,185.212,74.065,184.29,74.84,185.736z M78.225,176.721c-1.148,1.242-2.552-1.265-3.14-1.932
		c-1.07-1.213-2.852-1.271-4.167-0.354c-0.381,0.263-1.046,1.011-1.589,0.74c-0.77-0.379-0.933-1.1-1.076-1.882
		c-0.372-2.027-2.002-1.912-3.455-1.368c-0.536,0.199-1.428,0.672-1.938,0.206c-0.357-0.322-0.268-1.053-0.196-1.456
		c0.257-1.446,1.12-3.3-0.599-4.254c-1.208-0.669-2.447-0.352-3.754-0.465c-0.648-0.057-1.158-0.175-1.164-0.894
		c-0.003-0.447,0.292-0.912,0.391-1.346c0.163-0.726,0.303-1.466,0.216-2.217c-0.33-2.889-2.722-4.605-5.549-3.969
		c-0.176,0.04-0.295-0.368-0.128-0.408c0.014-0.002,0.03-0.002,0.049-0.007c0,0-0.002-0.003-0.001-0.005
		c0.325-2.244,2.708-1.935,4.108-0.768c1.062,0.888,1.598,2.199,2.204,3.404c0.879,1.745,2.127,3.122,3.249,4.692
		c1.075,1.506,2.042,3.058,3.442,4.298c1.44,1.277,3.088,2.229,4.954,2.727c2.284,0.607,5.192,0.794,6.945,2.568
		C77.497,174.508,78.935,175.957,78.225,176.721z"/>
	<path fill="#520031" d="M51.698,163.338c0,0-1.959,2.165-2.614-0.261c-0.654-2.427,2.593-5.462,5.533-4.407
		c2.941,1.056,3.134,3.64,1.881,5.797c-1.251,2.152-2.282,3.041,0.783,2.436c3.065-0.605,5.457,0.92,4.294,4.434
		c-1.161,3.511-0.364,3.187,1.894,2.199c2.258-0.991,3.585-0.698,3.769,2.013c0.184,2.714,0.677,3.841,2.587,1.479
		c1.912-2.364,4.093-3.163,4.983-0.462c0.891,2.701,1.367,4.921,2.846,2.332c1.48-2.591,3.24-2.071,3.659,0.913
		c0.419,2.989-1.945,8.853-5.342,6.155c-2.285-2.094-2.181-3.501-4.3-1.796c-2.118,1.703-3.221,1.639-5.412-2.396
		c-1.017-1.874-2.196-1.577-3.854-0.865c-1.659,0.708-2.99-0.416-3.49-3.216c-0.496-2.8-0.627-3.646-3.849-3.501
		c-3.226,0.145-3.163-2.421-2.354-5.509C53.52,165.594,55.32,160.459,51.698,163.338z"/>
	<path fill="#FFA1A1" d="M79.359,186.191c-1.066,0.918-2.317,0.898-3.521-0.057c-0.635-0.58-1.083-1.103-1.442-1.521
		c-0.973-1.129-1.203-1.397-2.594-0.277c-0.823,0.661-1.708,1.249-2.605,1.069c-0.966-0.194-1.871-1.218-3.127-3.53
		c-0.948-1.747-1.984-1.456-3.582-0.772c-0.708,0.303-1.386,0.3-1.965-0.013c-0.882-0.477-1.513-1.638-1.819-3.36
		c-0.497-2.805-0.613-3.459-3.63-3.324c-1.147,0.052-1.981-0.233-2.478-0.849c-0.924-1.144-0.534-3.235-0.093-4.928
		c0.095-0.362,0.202-0.751,0.316-1.149c0.481-1.736,1.21-4.359,0.645-4.733c-0.112-0.074-0.495-0.147-1.633,0.755
		c0,0.005-0.117,0.131-0.296,0.286c-0.443,0.381-1.1,0.794-1.708,0.607c-0.442-0.136-0.761-0.561-0.951-1.262
		c-0.325-1.206,0.247-2.657,1.456-3.698c1.295-1.117,2.924-1.477,4.355-0.962c1.286,0.46,2.164,1.252,2.542,2.288
		c0.41,1.119,0.209,2.51-0.549,3.815c-0.191,0.327-0.377,0.625-0.544,0.896c-0.331,0.532-0.741,1.193-0.647,1.329
		c0.045,0.063,0.302,0.182,1.748-0.105c1.788-0.354,3.298-0.005,4.145,0.952c0.543,0.614,1.053,1.766,0.394,3.757
		c-0.491,1.49-0.638,2.345-0.43,2.534c0.216,0.196,1.1-0.189,2.036-0.599c1.38-0.604,2.334-0.696,3.002-0.29
		c0.629,0.382,0.977,1.196,1.064,2.487c0.039,0.578,0.158,2.34,0.651,2.544c0.21,0.089,0.525-0.128,0.755-0.324
		c0.232-0.202,0.503-0.49,0.802-0.861c0.38-0.47,0.769-0.878,1.156-1.211c0.98-0.846,1.907-1.181,2.673-0.967
		c0.684,0.189,1.195,0.79,1.521,1.781c0.082,0.249,0.162,0.497,0.237,0.736c0.391,1.218,0.795,2.475,1.211,2.59
		c0.034,0.011,0.143,0.042,0.349-0.135c0.194-0.167,0.417-0.468,0.662-0.898c0.314-0.548,0.651-0.981,0.999-1.279
		c0.676-0.583,1.239-0.546,1.591-0.415c0.74,0.28,1.261,1.234,1.464,2.687C81.793,181.699,80.971,184.803,79.359,186.191z
		 M51.541,163.192c1.052-0.839,1.731-1.088,2.162-0.802c0.765,0.507,0.31,2.389-0.473,5.201c-0.109,0.398-0.217,0.784-0.311,1.144
		c-0.385,1.474-0.804,3.546,0.009,4.552c0.414,0.51,1.11,0.735,2.128,0.691c3.391-0.155,3.573,0.876,4.06,3.626
		c0.292,1.639,0.846,2.697,1.61,3.11c0.466,0.251,1.002,0.248,1.594-0.003c1.656-0.711,3.011-1.092,4.124,0.963
		c1.172,2.16,2.021,3.151,2.837,3.313c0.586,0.118,1.238-0.167,2.253-0.984c1.646-1.323,2.135-0.883,3.182,0.335
		c0.354,0.411,0.792,0.918,1.396,1.474c1.044,0.827,2.046,0.852,2.968,0.057c1.465-1.26,2.274-4.222,2.019-6.027
		c-0.177-1.272-0.613-2.126-1.193-2.345c-0.443-0.168-0.876,0.093-1.162,0.339c-0.312,0.269-0.617,0.662-0.907,1.167
		c-0.568,0.993-1.032,1.365-1.496,1.234c-0.636-0.18-0.997-1.309-1.5-2.871c-0.075-0.238-0.155-0.484-0.236-0.733
		c-0.28-0.846-0.696-1.355-1.232-1.5c-0.625-0.175-1.414,0.128-2.282,0.875c-0.369,0.317-0.74,0.706-1.104,1.157
		c-0.91,1.124-1.538,1.527-2.053,1.311c-0.529-0.221-0.786-1.035-0.913-2.908c-0.078-1.144-0.358-1.85-0.859-2.152
		c-0.533-0.322-1.386-0.219-2.611,0.317c-1.248,0.546-2.071,0.905-2.494,0.52c-0.378-0.343-0.292-1.151,0.313-2.979
		c0.471-1.425,0.365-2.581-0.309-3.344c-0.743-0.842-2.107-1.137-3.744-0.814c-1.385,0.273-1.955,0.256-2.18-0.069
		c-0.253-0.366,0.082-0.905,0.636-1.798c0.166-0.266,0.348-0.562,0.537-0.886c0.694-1.193,0.883-2.453,0.518-3.455
		c-0.338-0.925-1.107-1.611-2.287-2.034c-1.284-0.46-2.755-0.131-3.933,0.883c-1.086,0.936-1.605,2.22-1.324,3.268
		c0.149,0.551,0.374,0.876,0.666,0.965c0.445,0.138,1.009-0.271,1.304-0.524C51.43,163.315,51.537,163.197,51.541,163.192z"/>
	<path fill="#A30062" enable-background="new    " d="M77.655,178.896c-1.479,2.589-1.955,0.367-2.847-2.332
		c-0.891-2.701-3.07-1.899-4.983,0.462c-1.91,2.362-2.404,1.235-2.587-1.479c-0.184-2.711-1.511-3.004-3.769-2.013
		c-2.257,0.984-3.054,1.312-1.894-2.199c1.163-3.514-1.229-5.039-4.294-4.434c-3.064,0.605-2.034-0.283-0.783-2.436
		c1.254-2.155,1.061-4.741-1.881-5.797c-2.94-1.055-6.187,1.98-5.533,4.407c0.655,2.426,2.614,0.261,2.614,0.261
		c3.622-2.879,1.823,2.256,1.014,5.344c-0.809,3.088-0.87,5.653,2.354,5.509c3.223-0.146,3.352,0.698,3.849,3.501
		c0.5,2.8,1.831,3.927,3.49,3.216c1.658-0.712,2.838-1.009,3.854,0.865c2.192,4.038,3.293,4.1,5.412,2.396
		c2.118-1.705,2.014-0.3,4.3,1.799c3.397,2.696,5.761-3.169,5.342-6.158C80.895,176.825,79.134,176.305,77.655,178.896z
		 M80.466,181.595c0.124,1.312-1.136,3.021-2.602,2.659c-2.032-0.499-2.928-3.107-5.309-2.473c-1.03,0.273-1.932,0.596-2.997,0.301
		c-0.774-0.212-1.446-0.772-2.038-1.292c-0.868-0.763-1.806-1.707-3-1.904c-0.972-0.162-1.977,0.099-2.934-0.16
		c-2.146-0.585-1.733-3.673-2.603-5.135c-0.897-1.508-2.311-1.05-3.738-1.39c-0.696-0.162-1.153-0.515-1.444-1.171
		c-0.714-1.602,0.117-3.836,0.468-5.433c0.23-1.046,0.676-2.222,0.532-3.302c-0.108-0.832-0.719-1.149-1.487-1.09
		c-0.532,0.039-0.998,0.271-1.407,0.605c-0.248,0.199-0.596,0.782-0.961,0.551c-0.352-0.224-0.178-0.977-0.091-1.297
		c0.106-0.4,0.347-0.75,0.639-1.035c0.603-0.594,1.473-0.906,2.319-0.81c1.494,0.165,2.349,1.474,2.081,2.938
		c-0.197,1.072-0.729,2.008-1.041,3.041c-0.219,0.724-0.704,1.929,0.231,2.379c0.607,0.295,1.25,0.364,1.889,0.554
		c1.997,0.583,2.771,1.655,2.934,3.692c0.101,1.272-0.127,3.603,1.67,3.604c0.911,0.005,2.215-0.502,3.091-0.057
		c0.815,0.414,1.147,1.137,1.365,1.988c0.305,1.216,1.23,2.387,2.616,1.929c1.243-0.41,2.445-2.069,3.843-1.916
		c0.784,0.088,1.423,0.649,1.851,1.286c0.368,0.552,0.665,1.177,1.075,1.698c0.343,0.436,1.239,1.437,1.938,1.1
		C78.15,181.066,80.302,179.868,80.466,181.595z"/>
	<g>
		<circle cx="59.229" cy="171.44" r="0.674"/>
		<path d="M57.854,168.615c0.183-0.158,0.457-0.136,0.613,0.047c0.157,0.179,0.137,0.455-0.046,0.612
			c-0.182,0.155-0.456,0.135-0.612-0.047C57.652,169.046,57.673,168.772,57.854,168.615z"/>
		<path d="M55.222,171.457c0.117,0.135,0.104,0.342-0.033,0.46c-0.136,0.115-0.342,0.098-0.459-0.037
			c-0.116-0.136-0.102-0.342,0.034-0.458C54.9,171.303,55.107,171.321,55.222,171.457z"/>
		<circle cx="55.18" cy="161.434" r="0.326"/>
		<circle cx="52.005" cy="160.269" r="0.302"/>
		<circle cx="61.9" cy="178.823" r="0.305"/>
		<circle cx="65.084" cy="175.284" r="0.341"/>
		<circle cx="72.096" cy="179.869" r="0.385"/>
		<path d="M77.7,182.614c0.195,0.227,0.171,0.568-0.055,0.763c-0.227,0.194-0.566,0.17-0.763-0.06
			c-0.192-0.224-0.168-0.565,0.058-0.76S77.508,182.39,77.7,182.614z"/>
		<circle cx="79.253" cy="180.426" r="0.362"/>
		<circle cx="72.788" cy="177.251" r="0.29"/>
		<circle cx="63.854" cy="177.289" r="0.168"/>
		<circle cx="70.178" cy="182.618" r="0.165"/>
	</g>
	<path fill="#DCF2F7" d="M45.856,134.645c-4.589-8.972-1.01-16.406-1.01-16.406c4.28-10.669-1.854-12.874-5.866-11.963
		c-7,2.189-11.703,13.549-10.777,25.425c2.308,15.632,10.249,20.149,15.611,17.394C49.178,146.339,49.237,140.857,45.856,134.645z"
		/>
	<path fill="#FFA1A1" d="M42.921,117.282c0,0-3.686,7.382,0.775,16.424c3.296,6.256,3.156,11.735-2.245,14.417
		c-5.402,2.679-13.279-1.951-15.362-17.614c-0.761-11.887,4.102-23.181,11.134-25.269C41.25,104.386,47.349,106.676,42.921,117.282z
		"/>
	<path fill="#A30062" d="M37.267,148.954c-6.735-1.097-10.299-10.234-11.39-18.417c-0.779-12.196,4.177-23.391,11.285-25.501
		c0.938-0.199,1.905-0.226,2.812-0.079c1.766,0.287,3.166,1.219,3.944,2.623c1.244,2.24,0.973,5.532-0.8,9.785
		c-0.041,0.086-3.591,7.416,0.768,16.247c2.074,3.937,2.711,7.445,1.839,10.146c-0.634,1.959-2.04,3.491-4.181,4.557
		C40.214,148.974,38.735,149.195,37.267,148.954z M39.904,105.381c-0.856-0.14-1.766-0.117-2.638,0.068
		c-6.793,2.021-11.719,13.256-10.965,25.046c1.067,8.018,4.526,16.979,11.033,18.041c1.38,0.224,2.772,0.015,4.021-0.605
		c2.033-1.009,3.365-2.455,3.963-4.303c0.838-2.588,0.211-5.985-1.812-9.822c-4.459-9.034-0.813-16.541-0.777-16.618
		c1.694-4.055,1.977-7.31,0.815-9.401C42.629,106.139,41.06,105.568,39.904,105.381z"/>
	<path fill="#FF6340" enable-background="new    " d="M43.697,133.706c-4.461-9.042-0.775-16.424-0.775-16.424
		c4.428-10.606-1.673-12.897-5.697-12.042c-7.032,2.088-11.896,13.382-11.134,25.269c2.083,15.663,9.96,20.293,15.362,17.614
		C46.852,145.441,46.992,139.962,43.697,133.706z M33.532,143.134c-1.249,3.124-4.146-2.232-4.705-3.433
		c-1.213-2.606-1.715-5.769-2.025-8.604c-0.3-2.776-0.329-5.567-0.027-8.347c0.271-2.484,0.705-5.141,1.959-7.346
		c0.737-1.297,1.783-2.389,2.519-3.686c0.559-0.988,0.994-2.085,1.88-2.826c0.154-0.125,0.192,0.02,0.155,0.157
		c0.003-0.001,0.009-0.003,0.014-0.006c0.221-0.117,0.129,0.277-0.013,0.349c-2.398,1.257,2.765,1.855,1.535,3.205
		c-0.659,0.724-1.797,1.128-2.651,1.557c-1.306,0.651-2.446,1.321-3.293,2.575c-0.773,1.147-1.395,2.711-0.711,4.055
		c0.303,0.595,0.757,1.137,0.984,1.765c0.578,1.593-0.436,2.837-1.091,4.216c-0.403,0.848-0.911,1.896-0.618,2.856
		c0.258,0.869,0.872,1.391,1.468,2.038c0.767,0.845,1.228,1.718,1.09,2.885c-0.263,2.208-1.549,4.711,1.18,5.82
		C32.266,140.81,34.143,141.61,33.532,143.134z M42.613,139.932c-1.69-0.081-0.67-2.768-0.539-3.648
		c0.241-1.598-0.859-3-2.408-3.417c-0.445-0.124-1.446-0.152-1.588-0.743c-0.206-0.834,0.243-1.422,0.751-2.033
		c1.314-1.589,0.176-2.762-1.174-3.527c-0.498-0.281-1.433-0.662-1.404-1.351c0.019-0.481,0.634-0.882,0.991-1.086
		c1.272-0.733,3.246-1.264,2.872-3.193c-0.264-1.356-1.303-2.102-2.056-3.177c-0.375-0.53-0.611-0.996-0.065-1.465
		c0.341-0.289,0.886-0.363,1.283-0.564c0.66-0.343,1.318-0.712,1.837-1.26c2.001-2.108,1.778-5.046-0.526-6.803
		c-0.146-0.107,0.092-0.462,0.23-0.359c0.012,0.009,0.021,0.021,0.038,0.032c0,0-0.001-0.002,0.002-0.005
		c1.926-1.192,3.222,0.832,3.227,2.655c0.003,1.384-0.656,2.638-1.19,3.877c-0.771,1.794-1.024,3.636-1.506,5.506
		c-0.462,1.789-1.03,3.529-1.08,5.397c-0.053,1.927,0.277,3.799,1.096,5.549c1.002,2.14,2.729,4.487,2.497,6.971
		C43.841,137.951,43.656,139.984,42.613,139.932z"/>
	<path fill="#520031" d="M35.814,111.007c0,0-2.919-0.108-1.48-2.168c1.436-2.061,5.849-1.527,6.93,1.407
		c1.082,2.93-0.772,4.739-3.231,5.166c-2.453,0.426-3.796,0.206-1.361,2.164c2.434,1.959,2.801,4.772-0.636,6.14
		c-3.436,1.369-2.675,1.769-0.467,2.863c2.21,1.094,2.84,2.3,0.881,4.182c-1.961,1.887-2.507,2.989,0.53,2.933
		c3.04-0.053,5.055,1.103,3.557,3.52c-1.496,2.42-2.889,4.212,0.044,3.68c2.935-0.531,3.668,1.151,1.652,3.391
		c-2.02,2.241-8.032,4.2-8.15-0.135c0.136-3.098,1.28-3.922-1.387-4.451c-2.667-0.524-3.327-1.41-1.644-5.684
		c0.782-1.983-0.203-2.697-1.813-3.51c-1.61-0.814-1.605-2.557,0.219-4.74c1.826-2.179,2.39-2.823,0.208-5.2
		c-2.186-2.375-0.179-3.977,2.707-5.344C35.256,113.853,40.345,111.931,35.814,111.007z"/>
	<path fill="#FFA1A1" d="M36.088,146.887c-1.389-0.227-2.177-1.198-2.22-2.733c0.037-0.858,0.148-1.538,0.238-2.081
		c0.239-1.472,0.296-1.818-1.454-2.168c-1.036-0.204-2.055-0.504-2.495-1.306c-0.471-0.867-0.269-2.217,0.695-4.667
		c0.728-1.847-0.16-2.454-1.712-3.238c-0.687-0.347-1.12-0.868-1.253-1.513c-0.202-0.981,0.281-2.212,1.405-3.554
		c1.83-2.184,2.255-2.693,0.212-4.919c-0.776-0.845-1.094-1.668-0.942-2.442c0.281-1.443,2.134-2.489,3.714-3.239
		c0.339-0.161,0.705-0.327,1.084-0.497c1.639-0.747,4.117-1.875,4.04-2.548c-0.016-0.133-0.204-0.475-1.628-0.767
		c-0.003,0.003-0.175-0.005-0.409-0.043c-0.577-0.095-1.317-0.331-1.564-0.917c-0.18-0.426-0.059-0.945,0.356-1.54
		c0.713-1.023,2.194-1.52,3.769-1.262c1.687,0.275,3.011,1.291,3.537,2.719c0.475,1.279,0.431,2.463-0.12,3.416
		c-0.595,1.034-1.789,1.776-3.274,2.033c-0.375,0.064-0.723,0.113-1.037,0.159c-0.621,0.088-1.391,0.2-1.435,0.357
		c-0.021,0.076,0.054,0.349,1.205,1.271c1.42,1.142,2.125,2.521,1.935,3.786c-0.121,0.812-0.676,1.942-2.625,2.719
		c-1.457,0.58-2.205,1.018-2.216,1.299c-0.012,0.293,0.853,0.721,1.766,1.175c1.351,0.668,2.035,1.34,2.152,2.114
		c0.113,0.725-0.286,1.516-1.221,2.414c-0.417,0.401-1.69,1.624-1.53,2.133c0.068,0.218,0.437,0.32,0.735,0.37
		c0.302,0.049,0.697,0.071,1.174,0.061c0.606-0.011,1.167,0.026,1.672,0.108c1.277,0.208,2.129,0.702,2.457,1.426
		c0.296,0.645,0.166,1.422-0.384,2.311c-0.138,0.221-0.277,0.443-0.41,0.654c-0.683,1.082-1.386,2.2-1.208,2.594
		c0.014,0.032,0.061,0.135,0.329,0.18c0.252,0.042,0.626,0.02,1.112-0.069c0.623-0.113,1.17-0.133,1.623-0.059
		c0.881,0.145,1.215,0.598,1.341,0.952c0.261,0.748-0.136,1.762-1.119,2.849C41.094,145.864,38.189,147.229,36.088,146.887z
		 M35.823,110.794c1.318,0.269,1.946,0.628,2.005,1.14c0.102,0.914-1.63,1.773-4.288,2.981c-0.376,0.175-0.741,0.34-1.076,0.498
		c-1.376,0.652-3.234,1.665-3.481,2.935c-0.125,0.644,0.149,1.322,0.839,2.072c2.298,2.499,1.625,3.301-0.169,5.442
		c-1.066,1.277-1.521,2.381-1.346,3.231c0.106,0.521,0.453,0.928,1.025,1.22c1.608,0.813,2.773,1.604,1.915,3.778
		c-0.9,2.285-1.114,3.571-0.715,4.304c0.287,0.523,0.925,0.841,2.201,1.092c2.074,0.411,2.051,1.067,1.791,2.652
		c-0.087,0.536-0.195,1.198-0.231,2.018c0.037,1.331,0.663,2.113,1.862,2.31c1.909,0.311,4.698-0.972,5.916-2.33
		c0.861-0.954,1.236-1.838,1.03-2.418c-0.157-0.448-0.634-0.612-1.006-0.674c-0.407-0.066-0.904-0.047-1.478,0.057
		c-1.127,0.204-1.71,0.086-1.908-0.353c-0.272-0.603,0.362-1.606,1.235-2.996c0.135-0.21,0.271-0.429,0.41-0.65
		c0.469-0.761,0.591-1.405,0.358-1.91c-0.268-0.59-1.008-0.999-2.139-1.184c-0.48-0.078-1.016-0.112-1.595-0.103
		c-1.446,0.026-2.158-0.195-2.324-0.729c-0.17-0.547,0.289-1.268,1.642-2.569c0.826-0.795,1.186-1.462,1.098-2.041
		c-0.096-0.614-0.723-1.203-1.922-1.796c-1.221-0.604-2.025-1.004-2.002-1.576c0.02-0.512,0.695-0.963,2.485-1.677
		c1.393-0.554,2.21-1.378,2.361-2.387c0.167-1.108-0.483-2.345-1.781-3.39c-1.101-0.885-1.454-1.333-1.348-1.715
		c0.117-0.429,0.745-0.519,1.785-0.667c0.311-0.044,0.654-0.095,1.025-0.16c1.361-0.233,2.446-0.899,2.978-1.821
		c0.492-0.855,0.524-1.888,0.089-3.061c-0.472-1.279-1.67-2.195-3.206-2.444c-1.415-0.231-2.73,0.197-3.353,1.086
		c-0.326,0.466-0.431,0.849-0.312,1.13c0.183,0.429,0.855,0.598,1.241,0.661C35.658,110.787,35.816,110.794,35.823,110.794z"/>
	<path fill="#A30062" enable-background="new    " d="M40.582,140.891c-2.934,0.532-1.54-1.262-0.045-3.68
		c1.497-2.419-0.518-3.571-3.557-3.52c-3.038,0.057-2.491-1.047-0.53-2.933c1.959-1.884,1.33-3.088-0.881-4.182
		c-2.205-1.095-2.969-1.494,0.467-2.863c3.438-1.367,3.07-4.181,0.636-6.14c-2.435-1.958-1.092-1.738,1.361-2.164
		c2.458-0.426,4.314-2.234,3.231-5.166c-1.082-2.934-5.495-3.468-6.93-1.407c-1.439,2.06,1.48,2.168,1.48,2.168
		c4.532,0.925-0.556,2.85-3.441,4.212c-2.885,1.367-4.89,2.97-2.707,5.344c2.182,2.378,1.618,3.021-0.208,5.2
		c-1.825,2.184-1.832,3.928-0.219,4.74c1.61,0.813,2.597,1.525,1.813,3.51c-1.684,4.274-1.022,5.157,1.644,5.684
		c2.667,0.529,1.523,1.354,1.386,4.453c0.119,4.333,6.131,2.374,8.151,0.133C44.251,142.043,43.515,140.36,40.582,140.891z
		 M40.322,144.782c-0.926,0.937-3.045,1.069-3.711-0.286c-0.924-1.875,0.497-4.241-1.518-5.654
		c-0.872-0.613-1.698-1.096-2.157-2.101c-0.335-0.731-0.337-1.605-0.32-2.394c0.027-1.156,0.147-2.48-0.471-3.521
		c-0.499-0.85-1.345-1.45-1.763-2.351c-0.931-2.019,1.701-3.69,2.26-5.295c0.579-1.656-0.68-2.445-1.339-3.756
		c-0.322-0.637-0.346-1.214-0.031-1.858c0.768-1.577,3.014-2.378,4.461-3.136c0.95-0.495,2.137-0.909,2.872-1.714
		c0.567-0.617,0.419-1.29-0.122-1.84c-0.371-0.382-0.848-0.59-1.367-0.689c-0.312-0.062-0.983,0.047-1.04-0.381
		c-0.054-0.415,0.633-0.764,0.935-0.903c0.374-0.176,0.798-0.218,1.204-0.177c0.842,0.082,1.64,0.547,2.111,1.257
		c0.833,1.251,0.38,2.746-0.914,3.482c-0.947,0.538-2.006,0.731-2.997,1.156c-0.696,0.299-1.93,0.701-1.675,1.707
		c0.165,0.654,0.524,1.192,0.79,1.803c0.838,1.904,0.513,3.186-0.942,4.619c-0.909,0.896-2.841,2.221-1.689,3.599
		c0.582,0.702,1.811,1.374,2.032,2.331c0.208,0.89-0.133,1.61-0.646,2.325c-0.733,1.014-1.038,2.475,0.205,3.242
		c1.114,0.688,3.157,0.543,3.939,1.712c0.436,0.656,0.418,1.507,0.204,2.243c-0.186,0.638-0.474,1.267-0.609,1.914
		c-0.114,0.544-0.305,1.875,0.403,2.192C39.238,142.666,41.538,143.544,40.322,144.782z"/>
	<g>
		<circle cx="34.447" cy="121.986" r="0.673"/>
		<circle cx="35.658" cy="119.545" r="0.434"/>
		<path d="M31.859,118.926c-0.028,0.178-0.194,0.299-0.374,0.27c-0.176-0.027-0.296-0.196-0.267-0.374
			c0.028-0.176,0.195-0.297,0.373-0.268C31.769,118.582,31.888,118.752,31.859,118.926z"/>
		<circle cx="39.509" cy="112.452" r="0.326"/>
		<circle cx="38.361" cy="109.27" r="0.302"/>
		<circle cx="30.51" cy="128.777" r="0.305"/>
		<circle cx="35.267" cy="128.941" r="0.341"/>
		<circle cx="36.262" cy="137.26" r="0.384"/>
		<path d="M37.762,143.317c-0.046,0.293-0.325,0.497-0.619,0.448c-0.294-0.049-0.494-0.325-0.446-0.622
			c0.047-0.291,0.325-0.492,0.62-0.443C37.611,142.747,37.811,143.025,37.762,143.317z"/>
		<circle cx="40.437" cy="143.1" r="0.363"/>
		<path d="M38.759,135.819c0.159,0.028,0.265,0.175,0.239,0.333c-0.026,0.159-0.174,0.267-0.333,0.241
			c-0.157-0.025-0.264-0.177-0.24-0.333C38.451,135.9,38.601,135.796,38.759,135.819z"/>
		<circle cx="32.941" cy="129.288" r="0.168"/>
		<circle cx="32.923" cy="137.559" r="0.165"/>
	</g>
	<path fill="#DCF2F7" d="M134.739,162.774c-3.782,9.342-11.747,11.502-11.747,11.502c-10.868,3.742-8.521,9.824-5.206,12.26
		c6.234,3.862,17.902-0.015,26.276-8.485c10.31-11.975,8.53-20.936,2.939-23.187C141.406,152.61,137.222,156.153,134.739,162.774z"
		/>
	<path fill="#FFA1A1" d="M123.528,176.355c0,0,7.996-2.045,11.913-11.335c2.574-6.586,6.809-10.063,12.371-7.735
		c5.561,2.33,7.215,11.317-3.266,23.145c-8.492,8.353-20.214,12.065-26.395,8.114C114.871,186.058,112.61,179.947,123.528,176.355z"
		/>
	<path fill="#A30062" d="M151.178,159.903c3.576,5.813-1,14.488-6.474,20.666c-8.709,8.569-20.419,12.149-26.667,8.156
		c-0.766-0.58-1.417-1.292-1.9-2.074c-0.938-1.525-1.149-3.193-0.599-4.701c0.882-2.406,3.547-4.355,7.924-5.797
		c0.092-0.027,7.957-2.136,11.781-11.212c1.619-4.146,3.858-6.926,6.469-8.03c1.897-0.805,3.975-0.743,6.181,0.18
		C149.263,157.664,150.4,158.638,151.178,159.903z M116.504,186.425c0.454,0.738,1.068,1.413,1.777,1.951
		c5.971,3.813,17.694,0.188,26.115-8.099c5.364-6.056,9.876-14.533,6.421-20.148c-0.734-1.19-1.801-2.105-3.089-2.645
		c-2.094-0.878-4.06-0.939-5.848-0.182c-2.504,1.06-4.662,3.757-6.242,7.799c-3.912,9.285-11.975,11.438-12.056,11.46
		c-4.175,1.373-6.821,3.29-7.643,5.536C115.293,183.869,115.889,185.427,116.504,186.425z"/>
	<path fill="#FF6340" enable-background="new    " d="M135.441,165.02c-3.917,9.29-11.913,11.335-11.913,11.335
		c-10.917,3.592-8.657,9.706-5.377,12.188c6.181,3.951,17.903,0.238,26.395-8.114c10.481-11.827,8.827-20.814,3.266-23.145
		C142.25,154.958,138.014,158.434,135.441,165.02z M149.22,166.541c3.181-1.103,1.026,4.591,0.483,5.802
		c-1.177,2.622-3.238,5.073-5.179,7.159c-1.903,2.045-3.996,3.893-6.294,5.484c-2.057,1.422-4.348,2.831-6.837,3.323
		c-1.463,0.296-2.973,0.217-4.436,0.51c-1.112,0.222-2.227,0.612-3.366,0.428c-0.197-0.034-0.112-0.16,0.017-0.222
		c-0.003-0.002-0.008-0.005-0.013-0.007c-0.234-0.089,0.124-0.278,0.273-0.219c2.519,0.991-0.409-3.305,1.418-3.255
		c0.978,0.024,2.031,0.619,2.91,0.986c1.349,0.561,2.601,0.984,4.105,0.802c1.37-0.162,2.959-0.719,3.532-2.113
		c0.25-0.617,0.363-1.316,0.689-1.899c0.828-1.479,2.431-1.525,3.903-1.934c0.903-0.251,2.03-0.552,2.563-1.402
		c0.487-0.766,0.481-1.57,0.581-2.443c0.137-1.132,0.495-2.052,1.466-2.709c1.843-1.247,4.576-1.911,3.631-4.704
		C148.291,169.015,147.669,167.075,149.22,166.541z M140.857,161.767c1.044,1.329-1.655,2.318-2.405,2.793
		c-1.368,0.866-1.709,2.615-1.011,4.06c0.199,0.416,0.832,1.19,0.479,1.686c-0.496,0.698-1.235,0.745-2.03,0.763
		c-2.061,0.046-2.205,1.673-1.898,3.195c0.113,0.562,0.438,1.516-0.102,1.943c-0.376,0.303-1.083,0.099-1.471-0.036
		c-1.387-0.482-3.081-1.629-4.293-0.081c-0.853,1.085-0.736,2.359-1.056,3.631c-0.157,0.633-0.356,1.117-1.065,1.009
		c-0.444-0.068-0.856-0.433-1.267-0.601c-0.693-0.275-1.401-0.531-2.155-0.563c-2.905-0.133-4.98,1.956-4.799,4.848
		c0.013,0.182-0.411,0.233-0.423,0.062c0-0.013,0.002-0.03,0-0.047c0,0-0.002,0-0.005,0c-2.162-0.677-1.479-2.982-0.104-4.178
		c1.044-0.905,2.423-1.228,3.71-1.637c1.861-0.593,3.42-1.606,5.149-2.462c1.656-0.824,3.341-1.533,4.789-2.719
		c1.489-1.218,2.69-2.694,3.477-4.458c0.963-2.16,1.608-5.002,3.636-6.451C138.555,162.135,140.214,160.943,140.857,161.767z"/>
	<path fill="#520031" d="M123.434,185.837c0,0,1.828,2.278-0.672,2.537c-2.498,0.263-4.979-3.425-3.473-6.161
		c1.509-2.735,4.09-2.517,6.022-0.938c1.927,1.577,2.641,2.736,2.528-0.386c-0.111-3.122,1.775-5.24,5.059-3.538
		c3.283,1.705,3.089,0.866,2.471-1.521c-0.62-2.384-0.121-3.651,2.586-3.4c2.71,0.249,3.901-0.062,1.871-2.322
		c-2.031-2.261-2.477-4.542,0.333-4.992c2.808-0.45,5.075-0.57,2.753-2.44c-2.321-1.872-1.53-3.528,1.482-3.467
		c3.018,0.057,8.431,3.324,5.23,6.249c-2.431,1.927-3.802,1.6-2.457,3.962c1.347,2.361,1.108,3.439-3.223,4.965
		c-2.011,0.706-1.905,1.916-1.468,3.666c0.438,1.749-0.882,2.886-3.727,2.935c-2.844,0.047-3.701,0.042-4.068,3.245
		c-0.367,3.208-2.891,2.738-5.811,1.452C125.952,184.395,121.168,181.804,123.434,185.837z"/>
	<path fill="#FFA1A1" d="M150.385,162.149c0.74,1.198,0.52,2.431-0.612,3.467c-0.675,0.536-1.26,0.896-1.731,1.183
		c-1.268,0.783-1.57,0.968-0.685,2.518c0.523,0.917,0.963,1.885,0.643,2.74c-0.346,0.926-1.5,1.656-3.982,2.529
		c-1.876,0.659-1.753,1.728-1.33,3.415c0.187,0.745,0.075,1.415-0.325,1.938c-0.61,0.793-1.856,1.23-3.606,1.26
		c-2.849,0.047-3.513,0.057-3.859,3.059c-0.13,1.142-0.544,1.919-1.23,2.313c-1.274,0.73-3.28,0.013-4.88-0.691
		c-0.342-0.15-0.707-0.317-1.083-0.492c-1.639-0.753-4.113-1.887-4.571-1.388c-0.09,0.099-0.225,0.466,0.487,1.729
		c0.004,0.003,0.11,0.139,0.234,0.34c0.306,0.497,0.611,1.213,0.33,1.781c-0.203,0.418-0.674,0.664-1.397,0.741
		c-1.241,0.13-2.584-0.665-3.42-2.025c-0.896-1.456-0.994-3.12-0.259-4.45c0.658-1.198,1.581-1.939,2.661-2.148
		c1.172-0.227,2.513,0.192,3.682,1.146c0.292,0.241,0.559,0.473,0.797,0.679c0.474,0.414,1.063,0.921,1.21,0.852
		c0.07-0.034,0.228-0.271,0.172-1.742c-0.065-1.822,0.518-3.257,1.598-3.941c0.692-0.44,1.91-0.763,3.771,0.207
		c1.394,0.721,2.213,1.001,2.433,0.827c0.229-0.185-0.012-1.117-0.267-2.106c-0.378-1.459-0.317-2.416,0.189-3.012
		c0.476-0.561,1.334-0.772,2.625-0.656c0.577,0.054,2.333,0.216,2.615-0.239c0.12-0.194-0.045-0.539-0.203-0.797
		c-0.16-0.261-0.402-0.576-0.721-0.928c-0.405-0.45-0.746-0.9-1.014-1.333c-0.679-1.105-0.862-2.069-0.529-2.793
		c0.294-0.646,0.967-1.058,1.998-1.22c0.26-0.042,0.517-0.082,0.765-0.118c1.265-0.192,2.57-0.395,2.751-0.785
		c0.015-0.032,0.063-0.136-0.08-0.366c-0.133-0.217-0.395-0.485-0.78-0.795c-0.494-0.396-0.866-0.8-1.106-1.188
		c-0.468-0.761-0.343-1.309-0.158-1.639c0.394-0.687,1.418-1.048,2.885-1.019C146.336,159.034,149.271,160.339,150.385,162.149z
		 M123.267,185.968c-0.661-1.171-0.799-1.88-0.449-2.261c0.623-0.675,2.407,0.073,5.061,1.291c0.376,0.17,0.741,0.34,1.079,0.487
		c1.395,0.615,3.375,1.358,4.498,0.714c0.568-0.327,0.902-0.979,1.019-1.99c0.385-3.374,1.432-3.391,4.226-3.436
		c1.663-0.029,2.797-0.408,3.324-1.097c0.324-0.418,0.406-0.95,0.25-1.575c-0.437-1.746-0.599-3.146,1.604-3.919
		c2.319-0.812,3.434-1.493,3.724-2.273c0.208-0.561,0.031-1.25-0.615-2.382c-1.045-1.835-0.534-2.248,0.834-3.087
		c0.462-0.286,1.033-0.638,1.676-1.145c0.983-0.9,1.165-1.887,0.528-2.923c-1.012-1.646-3.81-2.915-5.631-2.947
		c-1.283-0.027-2.197,0.268-2.505,0.807c-0.234,0.411-0.047,0.879,0.151,1.198c0.214,0.352,0.555,0.716,1.009,1.083
		c0.891,0.718,1.184,1.234,0.98,1.673c-0.277,0.598-1.45,0.774-3.073,1.023c-0.247,0.037-0.501,0.079-0.76,0.118
		c-0.88,0.143-1.449,0.473-1.678,0.979c-0.271,0.588-0.097,1.414,0.504,2.391c0.256,0.414,0.58,0.842,0.967,1.272
		c0.966,1.077,1.262,1.762,0.969,2.233c-0.304,0.487-1.149,0.613-3.018,0.44c-1.143-0.103-1.883,0.062-2.261,0.507
		c-0.403,0.476-0.438,1.336-0.102,2.628c0.342,1.319,0.567,2.188,0.119,2.544c-0.4,0.32-1.184,0.105-2.893-0.779
		c-1.333-0.691-2.49-0.771-3.35-0.227c-0.948,0.6-1.458,1.901-1.398,3.567c0.052,1.412-0.057,1.973-0.414,2.143
		c-0.402,0.189-0.881-0.227-1.674-0.912c-0.236-0.21-0.498-0.434-0.791-0.672c-1.067-0.876-2.279-1.263-3.326-1.059
		c-0.968,0.185-1.769,0.837-2.372,1.935c-0.658,1.193-0.567,2.698,0.247,4.022c0.753,1.22,1.938,1.937,3.017,1.825
		c0.568-0.062,0.924-0.229,1.059-0.504c0.206-0.419-0.108-1.041-0.313-1.371C123.37,186.097,123.272,185.972,123.267,185.968z"/>
	<path fill="#A30062" enable-background="new    " d="M142.913,162.676c2.321,1.87,0.053,1.988-2.753,2.44
		c-2.808,0.453-2.363,2.729-0.333,4.992c2.03,2.261,0.837,2.568-1.871,2.322c-2.708-0.248-3.206,1.017-2.586,3.4
		c0.616,2.384,0.812,3.226-2.471,1.521c-3.284-1.702-5.169,0.416-5.059,3.538c0.113,3.122-0.601,1.963-2.528,0.386
		c-1.93-1.579-4.515-1.798-6.022,0.938c-1.508,2.736,0.975,6.424,3.473,6.161c2.5-0.259,0.672-2.537,0.672-2.537
		c-2.267-4.034,2.517-1.444,5.438-0.154c2.92,1.286,5.444,1.754,5.811-1.452c0.369-3.203,1.224-3.198,4.068-3.245
		c2.845-0.049,4.169-1.184,3.727-2.935c-0.438-1.75-0.545-2.963,1.468-3.666c4.334-1.525,4.571-2.604,3.223-4.965
		c-1.346-2.362,0.024-2.038,2.459-3.962c3.2-2.925-2.215-6.192-5.233-6.249C141.381,159.147,140.592,160.803,142.913,162.676z
		 M146.024,160.326c1.315,0.086,2.802,1.602,2.214,2.991c-0.815,1.927-3.532,2.399-3.285,4.85c0.106,1.061,0.283,2.003-0.177,3.007
		c-0.333,0.73-0.994,1.307-1.6,1.809c-0.892,0.735-1.973,1.51-2.355,2.659c-0.315,0.933-0.215,1.966-0.624,2.871
		c-0.918,2.025-3.902,1.13-5.483,1.757c-1.631,0.645-1.404,2.116-1.965,3.469c-0.27,0.662-0.69,1.056-1.385,1.24
		c-1.695,0.453-3.769-0.724-5.288-1.323c-0.998-0.394-2.088-1.019-3.178-1.049c-0.836-0.024-1.249,0.529-1.312,1.297
		c-0.045,0.529,0.108,1.026,0.375,1.483c0.157,0.275,0.678,0.714,0.391,1.036c-0.278,0.313-0.992,0.02-1.295-0.115
		c-0.377-0.168-0.687-0.463-0.921-0.795c-0.49-0.689-0.659-1.597-0.429-2.416c0.4-1.452,1.827-2.087,3.23-1.592
		c1.027,0.366,1.866,1.04,2.835,1.511c0.68,0.332,1.793,1.001,2.388,0.149c0.385-0.554,0.556-1.176,0.844-1.776
		c0.893-1.88,2.074-2.475,4.111-2.313c1.272,0.104,3.538,0.696,3.825-1.077c0.149-0.898-0.144-2.267,0.434-3.062
		c0.537-0.737,1.304-0.952,2.18-1.033c1.247-0.107,2.552-0.834,2.319-2.275c-0.208-1.292-1.654-2.743-1.283-4.099
		c0.213-0.761,0.866-1.302,1.562-1.622c0.604-0.277,1.269-0.47,1.848-0.792c0.485-0.271,1.617-0.996,1.393-1.739
		C145.135,162.528,144.293,160.218,146.024,160.326z"/>
	<g>
		<circle cx="132.631" cy="179.685" r="0.674"/>
		<circle cx="129.993" cy="180.366" r="0.434"/>
		<path d="M132.01,183.645c0.152-0.094,0.354-0.05,0.449,0.105c0.094,0.15,0.044,0.352-0.109,0.445
			c-0.15,0.094-0.352,0.047-0.445-0.105C131.809,183.937,131.86,183.736,132.01,183.645z"/>
		<circle cx="122.109" cy="182.096" r="0.326"/>
		<circle cx="120.455" cy="185.046" r="0.302"/>
		<circle cx="140.342" cy="178.218" r="0.305"/>
		<path d="M137.063,174.692c-0.097-0.16-0.048-0.369,0.113-0.468c0.16-0.099,0.369-0.05,0.467,0.11
			c0.097,0.163,0.049,0.369-0.11,0.47C137.372,174.903,137.163,174.851,137.063,174.692z"/>
		<circle cx="142.992" cy="168.317" r="0.385"/>
		<path d="M146.591,163.219c0.253-0.155,0.588-0.079,0.744,0.175c0.156,0.256,0.078,0.585-0.178,0.742
			c-0.251,0.155-0.586,0.079-0.742-0.177C146.258,163.707,146.339,163.374,146.591,163.219z"/>
		<circle cx="144.677" cy="161.34" r="0.362"/>
		<circle cx="140.518" cy="167.219" r="0.29"/>
		<circle cx="139.138" cy="176.045" r="0.167"/>
		<circle cx="145.403" cy="170.647" r="0.165"/>
	</g>
	<g>
		<g>
			<g>
				<path fill="#FFFFFF" d="M97.9,73.817c-0.108-0.164-0.063-0.384,0.101-0.492l0,0c0.164-0.108,0.384-0.063,0.492,0.101
					l2.698,4.083c0.108,0.164,0.063,0.384-0.101,0.492l0,0c-0.164,0.108-0.384,0.063-0.492-0.101L97.9,73.817z"/>
			</g>
			<g>
				<path fill="#FFFFFF" d="M106.24,82.519c0.116-0.01,0.218,0.075,0.228,0.191l0,0c0.011,0.116-0.075,0.218-0.19,0.229
					l-2.887,0.258c-0.116,0.01-0.218-0.075-0.228-0.191l0,0c-0.01-0.115,0.075-0.218,0.19-0.228L106.24,82.519z"/>
			</g>
			<g>
				<path fill="#FFFFFF" d="M99.655,83.461c0.069,0.139,0.013,0.309-0.126,0.378l0,0c-0.14,0.07-0.309,0.013-0.379-0.126
					l-1.739-3.476c-0.069-0.139-0.013-0.309,0.126-0.378l0,0c0.139-0.069,0.309-0.013,0.378,0.126L99.655,83.461z"/>
			</g>
			<g>
				<path fill="#FFFFFF" d="M104.737,87.039c0.176,0.138,0.208,0.393,0.069,0.569l0,0c-0.138,0.177-0.393,0.208-0.569,0.07
					l-4.402-3.441c-0.176-0.138-0.208-0.393-0.069-0.569l0,0c0.138-0.176,0.393-0.208,0.569-0.07L104.737,87.039z"/>
			</g>
			<g>
				<path fill="#FFFFFF" d="M101.666,88.167c0.083,0.08,0.086,0.212,0.006,0.296l0,0c-0.08,0.083-0.212,0.086-0.296,0.006
					l-2.079-1.996c-0.083-0.08-0.086-0.212-0.006-0.296l0,0c0.08-0.083,0.212-0.086,0.295-0.006L101.666,88.167z"/>
			</g>
			<g>
				<path fill="#FFFFFF" d="M105.036,88.08c-0.157,0.084-0.353,0.026-0.438-0.13l0,0c-0.085-0.157-0.026-0.353,0.13-0.438
					l3.914-2.119c0.157-0.085,0.353-0.027,0.438,0.13l0,0c0.085,0.157,0.026,0.353-0.13,0.438L105.036,88.08z"/>
			</g>
			<g>
				<path fill="#FFFFFF" d="M99.893,96.61c-0.15,0.117-0.366,0.089-0.482-0.061l0,0c-0.117-0.15-0.089-0.366,0.061-0.482
					l3.739-2.905c0.15-0.116,0.366-0.089,0.482,0.061l0,0c0.116,0.15,0.089,0.366-0.061,0.482L99.893,96.61z"/>
			</g>
			<g>
				<path fill="#FFFFFF" d="M102.743,90.804c-0.164-0.003-0.293-0.138-0.29-0.302l0,0c0.003-0.164,0.138-0.294,0.302-0.291
					l4.081,0.081c0.164,0.003,0.294,0.138,0.291,0.302l0,0c-0.003,0.164-0.138,0.293-0.302,0.29L102.743,90.804z"/>
			</g>
			<g>
				<path fill="#FFFFFF" d="M104.867,99.867c-0.059,0.124-0.208,0.176-0.331,0.117l0,0c-0.124-0.059-0.176-0.207-0.117-0.331
					l1.475-3.086c0.059-0.124,0.207-0.176,0.331-0.117l0,0c0.124,0.059,0.176,0.207,0.117,0.331L104.867,99.867z"/>
			</g>
			<g>
				<path fill="#FFFFFF" d="M110.198,81.419c-0.132,0.013-0.25-0.083-0.263-0.216l0,0c-0.013-0.132,0.083-0.25,0.216-0.263
					l3.296-0.324c0.132-0.013,0.25,0.083,0.263,0.216l0,0c0.013,0.132-0.083,0.25-0.215,0.263L110.198,81.419z"/>
			</g>
			<g>
				<path fill="#FFFFFF" d="M111.289,93.049c-0.11,0.09-0.273,0.073-0.363-0.037l0,0c-0.09-0.111-0.074-0.273,0.037-0.363
					l2.756-2.245c0.111-0.09,0.273-0.073,0.363,0.037l0,0c0.09,0.11,0.073,0.273-0.037,0.363L111.289,93.049z"/>
			</g>
			<g>
				<path fill="#FFFFFF" d="M112.304,98.191c-0.165,0.083-0.365,0.018-0.448-0.147l0,0c-0.083-0.165-0.018-0.365,0.146-0.448
					l4.101-2.076c0.164-0.083,0.365-0.018,0.448,0.147l0,0c0.083,0.164,0.018,0.365-0.147,0.448L112.304,98.191z"/>
			</g>
			<g>
				<path fill="#FFFFFF" d="M118.073,101.756c0.154,0.11,0.189,0.324,0.079,0.478l0,0c-0.11,0.154-0.324,0.189-0.478,0.079
					l-3.838-2.75c-0.154-0.11-0.189-0.324-0.079-0.478l0,0c0.11-0.154,0.324-0.189,0.478-0.079L118.073,101.756z"/>
			</g>
			<g>
				<path fill="#FFFFFF" d="M120.436,99.925c0.124,0.048,0.184,0.188,0.136,0.311l0,0c-0.049,0.123-0.188,0.184-0.311,0.135
					l-3.076-1.21c-0.124-0.048-0.184-0.188-0.135-0.311l0,0c0.048-0.124,0.188-0.184,0.311-0.135L120.436,99.925z"/>
			</g>
			<g>
				<path fill="#FFFFFF" d="M125.235,98.41c0.123-0.042,0.256,0.022,0.298,0.145l0,0c0.042,0.123-0.022,0.256-0.145,0.299
					l-3.053,1.061c-0.123,0.042-0.256-0.022-0.299-0.145l0,0c-0.042-0.123,0.022-0.256,0.145-0.298L125.235,98.41z"/>
			</g>
			<g>
				<path fill="#FFFFFF" d="M123.182,88.12c0.035-0.169,0.201-0.277,0.369-0.241l0,0c0.169,0.035,0.277,0.201,0.242,0.369
					l-0.882,4.207c-0.036,0.169-0.201,0.277-0.37,0.241l0,0c-0.168-0.035-0.276-0.201-0.241-0.369L123.182,88.12z"/>
			</g>
			<g>
				<path fill="#FFFFFF" d="M124.912,87.47c-0.077-0.164-0.006-0.358,0.157-0.435l0,0c0.164-0.077,0.358-0.007,0.436,0.157
					l1.916,4.081c0.077,0.164,0.006,0.358-0.157,0.436l0,0c-0.164,0.077-0.358,0.006-0.435-0.157L124.912,87.47z"/>
			</g>
			<g>
				<path fill="#FFFFFF" d="M122.011,88.44c0.158,0.015,0.273,0.156,0.258,0.313l0,0c-0.015,0.158-0.156,0.274-0.313,0.259
					l-3.942-0.38c-0.158-0.015-0.274-0.155-0.259-0.313l0,0c0.015-0.158,0.156-0.274,0.314-0.259L122.011,88.44z"/>
			</g>
			<g>
				<path fill="#FFFFFF" d="M120.167,84.476c0.049-0.177,0.231-0.281,0.408-0.232l0,0c0.177,0.049,0.281,0.232,0.232,0.409
					l-1.218,4.41c-0.049,0.176-0.231,0.28-0.408,0.231l0,0c-0.177-0.049-0.281-0.232-0.232-0.409L120.167,84.476z"/>
			</g>
			<g>
				<path fill="#FFFFFF" d="M133.705,86.658c0.095-0.071,0.23-0.052,0.302,0.043l0,0c0.071,0.096,0.052,0.23-0.043,0.302
					l-2.375,1.782c-0.095,0.072-0.23,0.052-0.302-0.043l0,0c-0.071-0.095-0.052-0.23,0.043-0.302L133.705,86.658z"/>
			</g>
			<g>
				<path fill="#FFFFFF" d="M117.253,90.105c-0.081-0.171-0.007-0.375,0.164-0.456l0,0c0.171-0.081,0.375-0.008,0.457,0.163
					l2.015,4.269c0.081,0.171,0.007,0.375-0.164,0.457l0,0c-0.171,0.081-0.375,0.007-0.456-0.164L117.253,90.105z"/>
			</g>
			<g>
				<path fill="#FFFFFF" d="M115.042,92.795c-0.082,0.141-0.262,0.189-0.403,0.108l0,0c-0.141-0.082-0.189-0.262-0.108-0.403
					l2.031-3.518c0.082-0.141,0.262-0.189,0.403-0.108l0,0c0.141,0.082,0.189,0.262,0.108,0.403L115.042,92.795z"/>
			</g>
			<g>
				<path fill="#FFFFFF" d="M115.661,84.443c-0.121-0.052-0.176-0.193-0.124-0.314l0,0c0.053-0.121,0.193-0.176,0.314-0.124
					l3.02,1.315c0.121,0.053,0.176,0.193,0.124,0.315l0,0c-0.053,0.121-0.193,0.176-0.314,0.124L115.661,84.443z"/>
			</g>
			<g>
				<path fill="#FFFFFF" d="M118.429,87.271c0.047,0.156-0.041,0.32-0.196,0.367l0,0c-0.156,0.047-0.32-0.041-0.367-0.196
					l-1.174-3.88c-0.047-0.156,0.041-0.32,0.197-0.367l0,0c0.155-0.047,0.319,0.041,0.367,0.196L118.429,87.271z"/>
			</g>
			<g>
				<path fill="#FFFFFF" d="M119.554,81.898c0.22,0.001,0.396,0.18,0.396,0.399l0,0c-0.001,0.22-0.18,0.396-0.399,0.396
					l-5.472-0.028c-0.22-0.001-0.396-0.18-0.395-0.399l0,0c0.001-0.219,0.18-0.396,0.399-0.395L119.554,81.898z"/>
			</g>
			<g>
				<path fill="#FFFFFF" d="M117.832,70.921c0.091-0.133,0.273-0.168,0.407-0.077l0,0c0.134,0.091,0.168,0.274,0.077,0.407
					l-2.277,3.333c-0.091,0.134-0.273,0.168-0.407,0.077l0,0c-0.134-0.091-0.168-0.273-0.077-0.407L117.832,70.921z"/>
			</g>
			<g>
				<path fill="#FFFFFF" d="M111.974,80.421c-0.142-0.12-0.16-0.332-0.04-0.474l0,0c0.12-0.143,0.333-0.16,0.475-0.041l3.543,2.991
					c0.142,0.12,0.16,0.332,0.04,0.474l0,0c-0.12,0.142-0.332,0.16-0.474,0.04L111.974,80.421z"/>
			</g>
			<g>
				<path fill="#FFFFFF" d="M109.823,84.635c-0.181-0.024-0.307-0.19-0.283-0.37l0,0c0.024-0.181,0.19-0.308,0.37-0.283l4.502,0.602
					c0.18,0.024,0.307,0.19,0.283,0.371l0,0c-0.024,0.181-0.19,0.307-0.37,0.283L109.823,84.635z"/>
			</g>
			<g>
				<path fill="#FFFFFF" d="M109.617,80.921c0.179-0.01,0.333,0.126,0.343,0.306l0,0c0.01,0.179-0.127,0.333-0.306,0.343
					l-4.467,0.254c-0.179,0.01-0.332-0.127-0.342-0.306l0,0c-0.01-0.179,0.126-0.332,0.306-0.342L109.617,80.921z"/>
			</g>
			<g>
				<path fill="#FFFFFF" d="M104.528,69.728c0.111-0.13,0.306-0.146,0.436-0.035l0,0c0.13,0.111,0.146,0.306,0.036,0.437
					l-2.764,3.25c-0.111,0.13-0.306,0.146-0.437,0.035l0,0c-0.13-0.111-0.146-0.306-0.036-0.437L104.528,69.728z"/>
			</g>
		</g>
	</g>
</g>
<g id="Ribosomes">
	<circle fill="#7250D9" cx="116.113" cy="43.918" r="0.958"/>
	<circle fill="#7250D9" cx="109.265" cy="51.73" r="0.528"/>
	<circle fill="#7250D9" cx="124.119" cy="50.454" r="0.528"/>
	<circle fill="#7250D9" cx="133.909" cy="58.711" r="0.528"/>
	<circle fill="#7250D9" cx="144.149" cy="52.353" r="0.528"/>
	<circle fill="#7250D9" cx="147.82" cy="47.7" r="0.528"/>
	<circle fill="#7250D9" cx="155.646" cy="53.342" r="0.691"/>
	<circle fill="#7250D9" cx="162.759" cy="53.504" r="0.69"/>
	<circle fill="#7250D9" cx="167.18" cy="67.296" r="0.69"/>
	<circle fill="#7250D9" cx="144.282" cy="105.317" r="0.476"/>
	<circle fill="#7250D9" cx="123.143" cy="118.15" r="0.478"/>
	<circle fill="#7250D9" cx="108.338" cy="142.432" r="0.546"/>
	<circle fill="#7250D9" cx="137.998" cy="133.255" r="0.673"/>
	<circle fill="#7250D9" cx="141.866" cy="130.3" r="0.577"/>
	<path fill="#7250D9" d="M145.876,127.209c0-0.317-0.258-0.573-0.573-0.573c-0.32,0-0.578,0.256-0.578,0.573
		c0,0.32,0.258,0.579,0.578,0.579C145.618,127.788,145.876,127.529,145.876,127.209z"/>
	<circle fill="#7250D9" cx="149.776" cy="122.178" r="0.576"/>
	<path fill="#7250D9" d="M156.935,123.057c0.317,0,0.573,0.257,0.573,0.576c0,0.317-0.256,0.575-0.573,0.575
		c-0.32,0-0.576-0.258-0.576-0.575C156.36,123.314,156.615,123.057,156.935,123.057z"/>
	<circle fill="#7250D9" cx="160.198" cy="119.401" r="0.743"/>
	<circle fill="#7250D9" cx="157.563" cy="111.675" r="0.577"/>
	<circle fill="#7250D9" cx="160.537" cy="106.23" r="0.475"/>
	<circle fill="#7250D9" cx="168.194" cy="87.099" r="0.501"/>
	<circle fill="#7250D9" cx="167.783" cy="80.722" r="0.5"/>
	<circle fill="#7250D9" cx="172.089" cy="75.761" r="0.5"/>
	<circle fill="#7250D9" cx="166.691" cy="73.036" r="0.66"/>
	<circle fill="#7250D9" cx="156.704" cy="83.032" r="0.654"/>
	<circle fill="#7250D9" cx="99.41" cy="125.908" r="0.478"/>
	<circle fill="#7250D9" cx="86.378" cy="114.699" r="0.784"/>
	<circle fill="#7250D9" cx="82.219" cy="126.755" r="0.785"/>
	<circle fill="#7250D9" cx="144.867" cy="69.426" r="0.476"/>
	<circle fill="#7250D9" cx="142.099" cy="62.397" r="0.583"/>
	<circle fill="#7250D9" cx="151.828" cy="61.031" r="0.548"/>
	<circle fill="#7250D9" cx="150.819" cy="40.099" r="0.526"/>
	<circle fill="#7250D9" cx="141.408" cy="33.482" r="0.528"/>
	<circle fill="#7250D9" cx="141.873" cy="25.157" r="0.528"/>
	<circle fill="#7250D9" cx="120.052" cy="36.141" r="0.69"/>
	<circle fill="#7250D9" cx="109.455" cy="32.098" r="0.583"/>
	<circle fill="#7250D9" cx="106.034" cy="41.062" r="0.523"/>
	<circle fill="#7250D9" cx="101.549" cy="43.044" r="0.524"/>
	<circle fill="#7250D9" cx="99.185" cy="59.108" r="0.635"/>
	<circle fill="#7250D9" cx="93.427" cy="62.911" r="0.562"/>
	<circle fill="#7250D9" cx="100.344" cy="37.173" r="0.585"/>
	<circle fill="#7250D9" cx="93.03" cy="40.34" r="0.824"/>
	<circle fill="#7250D9" cx="80.943" cy="31.766" r="0.824"/>
	<circle fill="#7250D9" cx="79.129" cy="39.286" r="0.504"/>
	<circle fill="#7250D9" cx="56.745" cy="77.51" r="0.509"/>
	<circle fill="#7250D9" cx="57.394" cy="90.248" r="0.552"/>
	<circle fill="#7250D9" cx="78.234" cy="95.216" r="0.523"/>
	<circle fill="#7250D9" cx="72.126" cy="110.448" r="0.523"/>
	<circle fill="#7250D9" cx="76.707" cy="111.087" r="0.522"/>
	<circle fill="#7250D9" cx="79.089" cy="103.489" r="0.598"/>
	<circle fill="#7250D9" cx="60.936" cy="101.253" r="0.809"/>
	<circle fill="#7250D9" cx="60.101" cy="60.542" r="0.632"/>
	<circle fill="#7250D9" cx="85.545" cy="35.24" r="0.638"/>
	<path fill="#7250D9" d="M117.823,28.855c0.241,0,0.438,0.195,0.438,0.436c0,0.241-0.197,0.437-0.438,0.437
		c-0.239,0-0.436-0.195-0.436-0.437C117.388,29.051,117.585,28.855,117.823,28.855z"/>
	<circle fill="#7250D9" cx="114.835" cy="42.164" r="0.958"/>
	<circle fill="#7250D9" cx="107.99" cy="49.975" r="0.528"/>
	<circle fill="#7250D9" cx="122.845" cy="48.697" r="0.528"/>
	<circle fill="#7250D9" cx="132.635" cy="56.955" r="0.528"/>
	<circle fill="#7250D9" cx="142.872" cy="50.596" r="0.528"/>
	<circle fill="#7250D9" cx="146.543" cy="45.943" r="0.529"/>
	<circle fill="#7250D9" cx="154.369" cy="51.585" r="0.69"/>
	<circle fill="#7250D9" cx="161.485" cy="51.747" r="0.69"/>
	<circle fill="#7250D9" cx="157.961" cy="57.177" r="0.689"/>
	<circle fill="#7250D9" cx="160.24" cy="60.005" r="0.531"/>
	<circle fill="#7250D9" cx="162.636" cy="64.478" r="0.53"/>
	<circle fill="#7250D9" cx="165.903" cy="65.539" r="0.69"/>
	<circle fill="#7250D9" cx="145.135" cy="72.036" r="0.476"/>
	<circle fill="#7250D9" cx="147.106" cy="77.574" r="0.476"/>
	<circle fill="#7250D9" cx="148.226" cy="82.794" r="0.477"/>
	<circle fill="#7250D9" cx="148.546" cy="89.609" r="0.477"/>
	<circle fill="#7250D9" cx="146.998" cy="97.012" r="0.477"/>
	<circle fill="#7250D9" cx="143.008" cy="103.561" r="0.478"/>
	<circle fill="#7250D9" cx="137.841" cy="108.726" r="0.477"/>
	<circle fill="#7250D9" cx="131.026" cy="112.986" r="0.478"/>
	<circle fill="#7250D9" cx="121.864" cy="116.394" r="0.477"/>
	<circle fill="#7250D9" cx="112.334" cy="118.259" r="0.478"/>
	<circle fill="#7250D9" cx="105.784" cy="119.484" r="0.477"/>
	<circle fill="#7250D9" cx="111.053" cy="124.542" r="0.477"/>
	<circle fill="#7250D9" cx="108.482" cy="131.806" r="0.607"/>
	<circle fill="#7250D9" cx="112.999" cy="131.672" r="0.416"/>
	<circle fill="#7250D9" cx="118.2" cy="130.56" r="0.418"/>
	<circle fill="#7250D9" cx="123.524" cy="128.643" r="0.417"/>
	<circle fill="#7250D9" cx="119.585" cy="133.627" r="0.547"/>
	<circle fill="#7250D9" cx="107.06" cy="140.677" r="0.546"/>
	<circle fill="#7250D9" cx="121.281" cy="137.109" r="0.547"/>
	<circle fill="#7250D9" cx="128.521" cy="135.492" r="0.673"/>
	<circle fill="#7250D9" cx="136.721" cy="131.499" r="0.673"/>
	<circle fill="#7250D9" cx="140.589" cy="128.543" r="0.577"/>
	<circle fill="#7250D9" cx="144.026" cy="125.455" r="0.576"/>
	<circle fill="#7250D9" cx="148.499" cy="120.424" r="0.576"/>
	<circle fill="#7250D9" cx="149.916" cy="126.987" r="0.576"/>
	<circle fill="#7250D9" cx="155.658" cy="121.877" r="0.577"/>
	<path fill="#7250D9" d="M158.921,116.902c0.411,0,0.746,0.332,0.746,0.742s-0.334,0.743-0.746,0.743
		c-0.408,0-0.743-0.333-0.743-0.743S158.512,116.902,158.921,116.902z"/>
	<circle fill="#7250D9" cx="162.875" cy="109.551" r="0.745"/>
	<circle fill="#7250D9" cx="156.286" cy="109.921" r="0.577"/>
	<circle fill="#7250D9" cx="152.072" cy="109.66" r="0.577"/>
	<circle fill="#7250D9" cx="159.26" cy="104.473" r="0.475"/>
	<circle fill="#7250D9" cx="155.073" cy="102.274" r="0.476"/>
	<circle fill="#7250D9" cx="157.686" cy="99.775" r="0.475"/>
	<circle fill="#7250D9" cx="160.557" cy="92.131" r="0.475"/>
	<circle fill="#7250D9" cx="157.951" cy="94.33" r="0.406"/>
	<circle fill="#7250D9" cx="166.71" cy="91.757" r="0.405"/>
	<circle fill="#7250D9" cx="166.917" cy="85.343" r="0.5"/>
	<circle fill="#7250D9" cx="166.509" cy="78.963" r="0.499"/>
	<circle fill="#7250D9" cx="170.812" cy="74.004" r="0.5"/>
	<circle fill="#7250D9" cx="165.416" cy="71.28" r="0.66"/>
	<circle fill="#7250D9" cx="159.996" cy="74.861" r="0.66"/>
	<circle fill="#7250D9" cx="161.246" cy="84.41" r="0.654"/>
	<circle fill="#7250D9" cx="159.435" cy="87.285" r="0.654"/>
	<circle fill="#7250D9" cx="155.427" cy="81.276" r="0.654"/>
	<circle fill="#7250D9" cx="159.081" cy="81.091" r="0.615"/>
	<path fill="#7250D9" d="M166.228,97.281c0.285,0,0.517,0.232,0.517,0.519s-0.231,0.519-0.517,0.519c-0.288,0-0.52-0.232-0.52-0.519
		S165.94,97.281,166.228,97.281z"/>
	<circle fill="#7250D9" cx="129.355" cy="128.631" r="0.452"/>
	<circle fill="#7250D9" cx="134.859" cy="125.375" r="0.581"/>
	<circle fill="#7250D9" cx="140.894" cy="121.311" r="0.493"/>
	<circle fill="#7250D9" cx="138.232" cy="120.141" r="0.493"/>
	<circle fill="#7250D9" cx="144.941" cy="116.697" r="0.493"/>
	<circle fill="#7250D9" cx="129.621" cy="125.903" r="0.5"/>
	<circle fill="#7250D9" cx="98.133" cy="124.152" r="0.478"/>
	<circle fill="#7250D9" cx="85.103" cy="112.942" r="0.785"/>
	<circle fill="#7250D9" cx="80.943" cy="125" r="0.785"/>
	<circle fill="#7250D9" cx="103.725" cy="127.968" r="0.478"/>
	<circle fill="#7250D9" cx="119.273" cy="123.264" r="0.477"/>
	<circle fill="#7250D9" cx="125.91" cy="120.634" r="0.477"/>
	<circle fill="#7250D9" cx="143.591" cy="67.67" r="0.477"/>
	<circle fill="#7250D9" cx="140.823" cy="60.641" r="0.584"/>
	<circle fill="#7250D9" cx="144.23" cy="59.68" r="0.476"/>
	<circle fill="#7250D9" cx="146.956" cy="63.741" r="0.477"/>
	<circle fill="#7250D9" cx="150.551" cy="59.274" r="0.549"/>
	<circle fill="#7250D9" cx="149.542" cy="38.342" r="0.529"/>
	<circle fill="#7250D9" cx="140.131" cy="31.725" r="0.528"/>
	<circle fill="#7250D9" cx="140.596" cy="23.401" r="0.528"/>
	<circle fill="#7250D9" cx="118.776" cy="34.385" r="0.691"/>
	<circle fill="#7250D9" cx="108.179" cy="30.341" r="0.585"/>
	<circle fill="#7250D9" cx="108.179" cy="37.655" r="0.584"/>
	<circle fill="#7250D9" cx="104.758" cy="39.304" r="0.524"/>
	<circle fill="#7250D9" cx="100.275" cy="41.286" r="0.523"/>
	<circle fill="#7250D9" cx="105.279" cy="45.37" r="0.524"/>
	<circle fill="#7250D9" cx="101.7" cy="47.736" r="0.524"/>
	<circle fill="#7250D9" cx="94.884" cy="50.505" r="0.524"/>
	<circle fill="#7250D9" cx="96.919" cy="52.584" r="0.523"/>
	<circle fill="#7250D9" cx="99.095" cy="54.268" r="0.524"/>
	<circle fill="#7250D9" cx="97.909" cy="57.352" r="0.635"/>
	<circle fill="#7250D9" cx="92.151" cy="61.155" r="0.562"/>
	<circle fill="#7250D9" cx="88.033" cy="64.386" r="0.563"/>
	<circle fill="#7250D9" cx="83.667" cy="69.285" r="0.562"/>
	<circle fill="#7250D9" cx="79.957" cy="76.189" r="0.562"/>
	<circle fill="#7250D9" cx="91.228" cy="51.322" r="0.523"/>
	<circle fill="#7250D9" cx="99.068" cy="35.417" r="0.583"/>
	<circle fill="#7250D9" cx="91.755" cy="38.584" r="0.823"/>
	<circle fill="#7250D9" cx="79.664" cy="30.009" r="0.824"/>
	<circle fill="#7250D9" cx="77.854" cy="37.531" r="0.505"/>
	<circle fill="#7250D9" cx="72.768" cy="41.989" r="0.732"/>
	<circle fill="#7250D9" cx="68.863" cy="46.237" r="0.517"/>
	<circle fill="#7250D9" cx="65.348" cy="49.99" r="0.589"/>
	<circle fill="#7250D9" cx="62.002" cy="54.597" r="0.507"/>
	<circle fill="#7250D9" cx="56.392" cy="63.435" r="0.508"/>
	<circle fill="#7250D9" cx="58.736" cy="68.796" r="0.509"/>
	<circle fill="#7250D9" cx="55.469" cy="75.756" r="0.508"/>
	<circle fill="#7250D9" cx="54.911" cy="79.651" r="0.41"/>
	<circle fill="#7250D9" cx="57.857" cy="84.016" r="0.552"/>
	<circle fill="#7250D9" cx="56.118" cy="88.49" r="0.552"/>
	<circle fill="#7250D9" cx="55.052" cy="92.927" r="0.552"/>
	<circle fill="#7250D9" cx="55.869" cy="96.478" r="0.552"/>
	<circle fill="#7250D9" cx="61.194" cy="94.597" r="0.552"/>
	<circle fill="#7250D9" cx="63.01" cy="89.715" r="0.552"/>
	<circle fill="#7250D9" cx="64.886" cy="85.374" r="0.552"/>
	<circle fill="#7250D9" cx="66.909" cy="81.063" r="0.552"/>
	<circle fill="#7250D9" cx="69.448" cy="76.199" r="0.463"/>
	<circle fill="#7250D9" cx="77.975" cy="81.95" r="0.522"/>
	<circle fill="#7250D9" cx="76.957" cy="88.455" r="0.521"/>
	<circle fill="#7250D9" cx="76.957" cy="93.461" r="0.522"/>
	<circle fill="#7250D9" cx="69.323" cy="94.561" r="0.523"/>
	<circle fill="#7250D9" cx="68.684" cy="100.809" r="0.523"/>
	<circle fill="#7250D9" cx="70.849" cy="108.69" r="0.522"/>
	<circle fill="#7250D9" cx="75.43" cy="109.329" r="0.523"/>
	<circle fill="#7250D9" cx="77.814" cy="101.733" r="0.6"/>
	<circle fill="#7250D9" cx="59.659" cy="99.496" r="0.808"/>
	<circle fill="#7250D9" cx="60.373" cy="105.575" r="0.649"/>
	<circle fill="#7250D9" cx="62.534" cy="107.355" r="0.65"/>
	<circle fill="#7250D9" cx="64.727" cy="106.876" r="0.527"/>
	<circle fill="#7250D9" cx="55.419" cy="66.687" r="0.508"/>
	<circle fill="#7250D9" cx="58.823" cy="58.785" r="0.632"/>
	<circle fill="#7250D9" cx="84.269" cy="33.482" r="0.637"/>
	<circle fill="#7250D9" cx="90.074" cy="32.843" r="0.638"/>
	<circle fill="#7250D9" cx="87.279" cy="41.645" r="0.691"/>
	<circle fill="#7250D9" cx="82.276" cy="45.001" r="0.691"/>
	<circle fill="#7250D9" cx="105.677" cy="34.136" r="0.518"/>
	<circle fill="#7250D9" cx="116.549" cy="27.535" r="0.437"/>
</g>
</svg>
