<?xml version="1.0" encoding="utf-8"?>
<!-- Generator: Adobe Illustrator 15.1.0, SVG Export Plug-In . SVG Version: 6.00 Build 0)  -->
<!DOCTYPE svg PUBLIC "-//W3C//DTD SVG 1.1//EN" "http://www.w3.org/Graphics/SVG/1.1/DTD/svg11.dtd">
<svg version="1.1" xmlns="http://www.w3.org/2000/svg" xmlns:xlink="http://www.w3.org/1999/xlink" x="0px" y="0px"
	 width="363.039px" height="219.896px" viewBox="0 0 363.039 219.896" enable-background="new 0 0 363.039 219.896"
	 xml:space="preserve">
<g id="Layer_1">
	<path fill="#DCF2F7" stroke="#000000" stroke-width="3" stroke-miterlimit="10" d="M159.922,60.941
		c0.326-2.379,0.207-5.445-0.899-7.657c-0.481-0.962-1.076-1.884-1.584-2.833c-1.183-2.213-2.586-4.009-4.73-5.356
		c-2.019-1.269-4.483-1.52-6.622-2.54c-1.031-0.491-1.961-1.235-3.084-1.44c-1.699-0.311-3.378-0.27-5.081-0.631
		c-1.648-0.35-2.094-0.28-3.454,0.517c-3.492,2.046-8.045,2.932-10.796,6.088c-0.736,0.846-1.03,1.414-1.928,1.99
		c-1.008,0.647-2.293,0.967-3.338,1.619c-2.222,1.386-4.26,3.22-5.762,5.374c-1.183,1.696-2.229,3.258-3.749,4.754
		c-2.537,2.497-4.825,4.997-7.414,7.417c-3.175,2.969-6.5,5.84-9.879,8.584c-3.366,2.734-6.53,5.505-10.093,7.971
		c-2.476,1.714-4.073,3.948-6.107,6.093c-2.676,2.82-6.264,4.135-8.411,7.46c-2.09,3.235-4.563,5.936-7.438,8.493
		c-3.624,3.223-7.436,6.128-10.093,10.263c-2.272,3.536-5.392,7.743-5.169,12.154c0.261,5.169-1.31,10.891-0.295,15.927
		c0.36,1.789,0.881,3.526,1.25,5.25c0.39,1.825,0.305,3.979,0.402,5.848c0.107,2.045,0.396,3.167,1.531,4.851
		c1.949,2.893,3.949,5.715,6.402,8.229c1.099,1.127,2.194,2.268,3.256,3.389c1.126,1.191,2.441,1.025,3.942,1.524
		c1.249,0.415,2.392,1.08,3.459,1.791c1.293,0.861,2.653,2.193,4.159,2.716c1.832,0.636,4.017,1.117,6,1.125
		c1.887,0.008,3.941-0.353,5.75-0.626c1.947-0.293,3.891-0.075,5.845-0.111c1.55-0.029,3.045-0.534,4.534-1.04
		c4.572-1.555,8.813-3.95,12.748-6.704c1.105-0.773,1.83-1.781,2.683-2.792c0.883-1.046,1.28-2.075,1.961-3.189
		c0.58-0.949,1.499-1.717,2.021-2.662c1.279-2.315,1.839-5.208,3.396-7.503c1.421-2.095,3.13-3.95,4.585-6.002
		c1.368-1.929,2.83-3.882,4.019-5.912c1.241-2.12,2.19-4.791,3.086-7.079c0.941-2.405,2.217-4.393,3.604-6.569
		c1.229-1.928,2.101-4.058,3.165-6.099c1.117-2.143,2.174-4.38,3.333-6.567c1.199-2.264,2.796-4.214,3.979-6.431
		c0.535-1.003,1.179-1.87,1.854-2.836c0.309-0.442,0.621-0.902,0.831-1.4c0.236-0.56,0.221-1.157,0.396-1.769
		c0.627-2.19,2.566-3.56,3.359-5.611c1.117-2.892,3.174-5.767,4.836-8.403c1.527-2.423,3.058-4.849,4.434-7.364
		c0.726-1.326,1.54-2.621,2.075-4.041c0.507-1.348,0.455-2.718,0.691-4.117c0.192-1.136,0.66-2.184,1.018-3.271
		c0.87-2.652,1.151-5.45,1.167-8.229C159.771,62.696,159.802,61.813,159.922,60.941z"/>
	<path fill="#BEE3EB" d="M126.161,72.427c0.147-0.063,0.296-0.124,0.444-0.185c2.074-0.843,5.846-2.291,7.995-1.37
		c2.198,0.941,3.74,3.83,4.963,5.838c1.588,2.606,1.707,4.368-0.004,6.945c-1.479,2.229-2.718,4.503-3.954,6.87
		c-1.455,2.785-3.154,5.397-5.129,7.839c-2.021,2.497-3.463,5.395-5.162,8.17c-3.376,5.513-7.157,10.763-10.564,16.256
		c-1.665,2.685-3.05,5.495-4.61,8.232c-0.559,0.98-1.364,1.806-1.792,2.842c-0.535,1.294-0.438,2.813-0.946,4.133
		c-0.794,2.062-1.844,4.064-3.008,6c-1.274,2.118-1.981,4.553-3.414,6.569c-1.283,1.807-3.42,3.097-5.166,4.514
		c-3.953,3.206-8.771,4.979-13.574,4.487c-5.549-0.568-10.769,0.862-15.796-1.909c-4.866-2.682-7.338-6.096-7.338-11.624
		c0-2.955,0.93-5.255,1.333-8c0.389-2.647,0.367-5.341,0.843-8c0.731-4.084,5.563-8.103,8.483-11.033
		c1.762-1.769,2.952-3.833,4.632-5.679c4.629-5.086,11.009-7.87,15.421-13.251c0.951-1.161,1.121-2.294,1.743-3.545
		c0.493-0.993,1.484-1.92,2.175-2.834c1.581-2.093,3.043-4.052,5.029-5.784c1.755-1.531,3.302-3.326,4.966-4.915
		c1.789-1.708,4.613-2.666,6.875-3.459c2.694-0.944,5.563-1.692,8.167-3.213C121.174,74.918,123.604,73.51,126.161,72.427z"/>
</g>
<g id="Layer_2_1_">
	<path fill="#156E94" d="M42.492,135.735c0.207-2.248,0.403-4.355,0.3-6.4c-0.212-4.412,2.386-8.422,4.673-11.915
		c0.25-0.382,0.496-0.757,0.732-1.125c2.303-3.584,5.42-6.283,8.435-8.893c0.642-0.556,1.285-1.113,1.923-1.681
		c3.026-2.691,5.307-5.292,7.176-8.186c1.41-2.184,3.317-3.554,5.161-4.88c1.238-0.89,2.409-1.731,3.422-2.798
		c0.553-0.584,1.073-1.174,1.589-1.759c1.384-1.57,2.815-3.194,4.753-4.535c2.645-1.831,5.035-3.808,7.565-5.9
		c0.806-0.666,1.614-1.335,2.436-2.001c3.501-2.844,6.798-5.708,9.8-8.516c1.529-1.43,2.928-2.863,4.408-4.38
		c0.976-1.001,1.957-2.006,2.978-3.011c1.305-1.283,2.229-2.614,3.301-4.154l0.27-0.388c1.551-2.226,3.694-4.228,6.198-5.789
		c0.619-0.387,1.258-0.654,1.876-0.913c0.538-0.226,1.045-0.438,1.446-0.695c0.449-0.288,0.662-0.555,1.049-1.037
		c0.166-0.208,0.345-0.432,0.559-0.677c2.024-2.322,4.779-3.495,7.444-4.63c1.335-0.569,2.597-1.106,3.725-1.767
		c1.68-0.984,2.525-1.113,4.522-0.69c0.819,0.174,1.651,0.246,2.531,0.322c0.81,0.07,1.646,0.144,2.509,0.301
		c1.014,0.185,1.847,0.663,2.581,1.085c0.289,0.166,0.579,0.334,0.879,0.478c0.816,0.39,1.714,0.661,2.665,0.948
		c1.37,0.415,2.787,0.845,4.109,1.675c2.179,1.369,3.8,3.194,5.256,5.919c0.209,0.393,0.435,0.779,0.66,1.167
		c0.326,0.563,0.653,1.126,0.941,1.703c1.006,2.01,1.217,4.358,1.217,5.976c0,0.859-0.058,1.72-0.173,2.557
		c-0.117,0.86-0.137,1.758-0.141,2.443c-0.019,3.355-0.425,6.198-1.242,8.689c-0.107,0.329-0.226,0.655-0.343,0.98
		c-0.261,0.72-0.506,1.4-0.62,2.073c-0.074,0.438-0.116,0.872-0.16,1.304c-0.099,0.99-0.201,2.015-0.607,3.092
		c-0.451,1.198-1.063,2.28-1.655,3.327c-0.171,0.302-0.342,0.603-0.507,0.905c-1.387,2.533-2.939,4.997-4.481,7.444
		c-0.339,0.538-0.694,1.085-1.055,1.642c-1.384,2.133-2.815,4.34-3.65,6.502c-0.443,1.147-1.132,2.051-1.798,2.925
		c-0.647,0.85-1.259,1.652-1.519,2.558c-0.057,0.197-0.083,0.393-0.113,0.584c-0.063,0.404-0.135,0.861-0.342,1.354
		c-0.264,0.625-0.631,1.171-0.984,1.677l-0.327,0.465c-0.528,0.75-1.027,1.459-1.433,2.218c-0.618,1.158-1.337,2.237-2.031,3.281
		c-0.706,1.062-1.373,2.065-1.946,3.146c-0.623,1.176-1.216,2.365-1.804,3.546c-0.506,1.016-1.009,2.023-1.524,3.013
		c-0.356,0.684-0.69,1.377-1.024,2.069c-0.663,1.376-1.349,2.799-2.206,4.143l-0.059,0.093c-1.362,2.137-2.538,3.981-3.413,6.217
		l-0.422,1.09c-0.776,2.019-1.657,4.307-2.767,6.201c-0.999,1.705-2.174,3.345-3.31,4.93l-0.779,1.092
		c-0.697,0.982-1.449,1.921-2.177,2.829c-0.853,1.063-1.659,2.068-2.391,3.147c-0.782,1.151-1.293,2.509-1.835,3.945
		c-0.434,1.15-0.882,2.341-1.49,3.439c-0.349,0.633-0.792,1.149-1.221,1.648c-0.319,0.373-0.621,0.725-0.833,1.071
		s-0.394,0.686-0.574,1.019c-0.409,0.758-0.831,1.54-1.521,2.357l-0.442,0.533c-0.715,0.869-1.454,1.769-2.527,2.519
		c-4.548,3.184-8.841,5.439-13.125,6.896c-1.496,0.509-3.192,1.086-4.989,1.119c-0.67,0.013-1.34-0.003-2.008-0.02
		c-1.271-0.031-2.47-0.062-3.641,0.115l-0.69,0.105c-1.651,0.255-3.522,0.544-5.289,0.537c-1.962-0.008-4.266-0.437-6.485-1.208
		c-1.266-0.438-2.372-1.288-3.348-2.037c-0.393-0.301-0.775-0.597-1.151-0.848c-1.213-0.808-2.169-1.306-3.102-1.616
		c-0.379-0.126-0.762-0.203-1.168-0.286c-1.072-0.217-2.288-0.464-3.391-1.63c-1.056-1.116-2.146-2.251-3.239-3.373
		c-2.644-2.708-4.778-5.775-6.573-8.438c-1.366-2.026-1.673-3.479-1.785-5.61c-0.028-0.541-0.042-1.104-0.056-1.678
		c-0.032-1.357-0.065-2.762-0.315-3.934c-0.166-0.776-0.364-1.555-0.563-2.34c-0.24-0.947-0.488-1.927-0.69-2.928
		c-0.252-1.252-0.375-2.617-0.375-4.173v-0.001C42.149,139.455,42.324,137.564,42.492,135.735z M157.68,53.955
		c-0.261-0.521-0.558-1.029-0.853-1.538c-0.243-0.418-0.485-0.835-0.712-1.259c-1.197-2.239-2.494-3.718-4.207-4.794
		c-0.98-0.616-2.147-0.969-3.383-1.343c-1.015-0.308-2.065-0.626-3.086-1.112c-0.368-0.176-0.726-0.379-1.081-0.584
		c-0.602-0.345-1.121-0.643-1.627-0.735c-0.723-0.132-1.454-0.195-2.229-0.263c-0.932-0.081-1.896-0.164-2.895-0.376
		c-1.32-0.28-1.38-0.245-2.384,0.343c-1.293,0.758-2.703,1.358-4.065,1.938c-2.462,1.048-4.787,2.038-6.357,3.841
		c-0.184,0.21-0.337,0.402-0.479,0.581c-0.446,0.557-0.907,1.132-1.77,1.686c-0.62,0.398-1.274,0.673-1.906,0.938
		c-0.532,0.223-1.035,0.434-1.449,0.691c-2.163,1.35-4.004,3.064-5.325,4.959l-0.268,0.386c-1.108,1.594-2.155,3.1-3.659,4.58
		c-1.006,0.99-1.973,1.98-2.935,2.967c-1.438,1.475-2.927,3-4.506,4.477c-3.053,2.854-6.403,5.766-9.958,8.652
		c-0.813,0.661-1.615,1.324-2.414,1.985c-2.468,2.04-5.02,4.151-7.771,6.055c-1.636,1.133-2.886,2.551-4.21,4.053
		c-0.539,0.611-1.084,1.229-1.663,1.839c-1.208,1.273-2.55,2.237-3.847,3.169c-1.692,1.216-3.29,2.365-4.393,4.072
		c-2.021,3.128-4.468,5.924-7.701,8.799c-0.647,0.576-1.302,1.143-1.953,1.707c-2.985,2.585-5.806,5.026-7.875,8.247
		c-0.241,0.375-0.491,0.757-0.746,1.146c-2.04,3.115-4.351,6.652-4.187,10.12c0.112,2.234-0.102,4.576-0.309,6.826
		c-0.162,1.762-0.33,3.583-0.33,5.3c0,0,0,0,0,0.001c0,1.354,0.104,2.525,0.316,3.58c0.187,0.928,0.426,1.871,0.657,2.783
		c0.208,0.821,0.415,1.637,0.589,2.449c0.31,1.448,0.346,2.995,0.381,4.491c0.014,0.543,0.025,1.078,0.053,1.591
		c0.092,1.758,0.299,2.641,1.277,4.091c1.721,2.555,3.764,5.491,6.232,8.021c1.104,1.132,2.204,2.277,3.271,3.405
		c0.432,0.456,0.891,0.565,1.808,0.752c0.453,0.092,0.967,0.195,1.519,0.379c1.532,0.51,2.845,1.318,3.817,1.967
		c0.43,0.286,0.868,0.621,1.314,0.964c0.835,0.641,1.698,1.303,2.505,1.583c1.916,0.665,3.874,1.035,5.514,1.042
		c1.531,0.006,3.203-0.252,4.82-0.502l0.7-0.107c1.431-0.215,2.819-0.181,4.162-0.147c0.625,0.016,1.251,0.031,1.878,0.02
		c1.329-0.025,2.728-0.501,4.08-0.96c4.011-1.364,8.058-3.495,12.371-6.514c0.736-0.515,1.289-1.188,1.929-1.966l0.468-0.564
		c0.489-0.579,0.806-1.166,1.173-1.846c0.205-0.379,0.413-0.764,0.654-1.158c0.337-0.553,0.733-1.014,1.115-1.46
		c0.346-0.402,0.672-0.782,0.872-1.146c0.502-0.91,0.894-1.948,1.309-3.047c0.579-1.537,1.178-3.127,2.16-4.572
		c0.799-1.178,1.68-2.276,2.532-3.34c0.732-0.914,1.424-1.777,2.07-2.688l0.788-1.104c1.097-1.53,2.231-3.113,3.16-4.699
		c0.986-1.684,1.784-3.757,2.556-5.763l0.428-1.104c0.981-2.509,2.291-4.563,3.678-6.737l0.059-0.092
		c0.761-1.194,1.379-2.476,2.033-3.833c0.347-0.721,0.695-1.442,1.066-2.153c0.507-0.974,1.002-1.966,1.499-2.964
		c0.6-1.203,1.204-2.415,1.839-3.612c0.643-1.213,1.383-2.326,2.1-3.402c0.685-1.03,1.332-2.003,1.882-3.033
		c0.492-0.922,1.044-1.704,1.627-2.532l0.32-0.455c0.272-0.39,0.529-0.77,0.679-1.124c0.064-0.154,0.101-0.385,0.143-0.653
		c0.049-0.311,0.102-0.626,0.193-0.946c0.414-1.45,1.266-2.566,2.016-3.551c0.563-0.739,1.096-1.438,1.386-2.188
		c0.947-2.453,2.465-4.792,3.933-7.054c0.354-0.544,0.701-1.082,1.073-1.672c1.478-2.344,3.006-4.768,4.348-7.22
		c0.172-0.315,0.35-0.63,0.527-0.943c0.561-0.991,1.09-1.927,1.459-2.906c0.268-0.71,0.347-1.499,0.431-2.334
		c0.05-0.498,0.101-1,0.187-1.506c0.159-0.938,0.463-1.779,0.756-2.592c0.108-0.298,0.216-0.596,0.314-0.896
		c0.719-2.189,1.076-4.731,1.093-7.77c0.004-0.777,0.027-1.802,0.169-2.836c0.097-0.701,0.145-1.425,0.145-2.148
		C158.58,56.76,158.26,55.115,157.68,53.955z"/>
	<g id="Layer_2">
		<rect x="0" y="0" fill="none" width="363.039" height="219.896"/>
	</g>
	<path fill="#7E8C8F" d="M40.045,133.058c3.671-21.514,22.362-36.831,37.381-49.139l2.008-1.647
		c10.192-8.379,21.807-19.268,29.492-26.474c3.6-3.375,6.444-6.041,7.922-7.305c0.414-0.354,0.868-0.761,1.362-1.202
		c5.049-4.513,14.447-12.914,27.696-8.066c14.248,5.213,16.694,13.363,17.216,21.395c0.064,0.997,0.097,1.994,0.097,2.964
		c0,12.271-5.235,20.581-10.298,28.619c-0.514,0.815-1.028,1.632-1.539,2.456c-6.135,9.884-31.843,57.268-36.257,66.512
		c-6.948,14.853-27.359,24.829-43.679,21.349c-18.881-4.026-32.067-21.12-32.068-41.569c0-0.001,0-0.001,0-0.002
		C39.376,138.313,39.6,135.66,40.045,133.058z M159.922,60.941c0.326-2.379,0.207-5.445-0.899-7.657
		c-0.481-0.962-1.076-1.884-1.584-2.833c-1.183-2.213-2.586-4.009-4.73-5.356c-2.019-1.269-4.483-1.52-6.622-2.54
		c-1.031-0.491-1.961-1.235-3.084-1.44c-1.699-0.311-3.378-0.27-5.081-0.631c-1.648-0.35-2.094-0.28-3.454,0.517
		c-3.492,2.046-8.045,2.932-10.796,6.088c-0.736,0.846-1.03,1.414-1.928,1.99c-1.008,0.647-2.293,0.967-3.338,1.619
		c-2.222,1.386-4.26,3.22-5.762,5.374c-1.183,1.696-2.229,3.258-3.749,4.754c-2.537,2.497-4.825,4.997-7.414,7.417
		c-3.175,2.969-6.5,5.84-9.879,8.584c-3.366,2.734-6.53,5.505-10.093,7.971c-2.476,1.714-4.073,3.948-6.107,6.093
		c-2.676,2.82-6.264,4.135-8.411,7.46c-2.09,3.235-4.563,5.936-7.438,8.493c-3.624,3.223-7.436,6.128-10.093,10.263
		c-2.272,3.536-5.392,7.743-5.169,12.154c0.261,5.169-1.31,10.891-0.295,15.927c0.36,1.789,0.881,3.526,1.25,5.25
		c0.39,1.825,0.305,3.979,0.402,5.848c0.107,2.045,0.396,3.167,1.531,4.851c1.949,2.893,3.949,5.715,6.402,8.229
		c1.099,1.127,2.194,2.268,3.256,3.389c1.126,1.191,2.441,1.025,3.942,1.524c1.249,0.415,2.392,1.08,3.459,1.791
		c1.293,0.861,2.653,2.193,4.159,2.716c1.832,0.636,4.017,1.117,6,1.125c1.887,0.008,3.941-0.353,5.75-0.626
		c1.947-0.293,3.891-0.075,5.845-0.111c1.55-0.029,3.045-0.534,4.534-1.04c4.572-1.555,8.813-3.95,12.748-6.704
		c1.105-0.773,1.83-1.781,2.683-2.792c0.883-1.046,1.28-2.075,1.961-3.189c0.58-0.949,1.499-1.717,2.021-2.662
		c1.279-2.315,1.839-5.208,3.396-7.503c1.421-2.095,3.13-3.95,4.585-6.002c1.368-1.929,2.83-3.882,4.019-5.912
		c1.241-2.12,2.19-4.791,3.086-7.079c0.941-2.405,2.217-4.393,3.604-6.569c1.229-1.928,2.101-4.058,3.165-6.099
		c1.117-2.143,2.174-4.38,3.333-6.567c1.199-2.264,2.796-4.214,3.979-6.431c0.535-1.003,1.179-1.87,1.854-2.836
		c0.309-0.442,0.621-0.902,0.831-1.4c0.236-0.56,0.221-1.157,0.396-1.769c0.627-2.19,2.566-3.56,3.359-5.611
		c1.117-2.892,3.174-5.767,4.836-8.403c1.527-2.423,3.058-4.849,4.434-7.364c0.726-1.326,1.54-2.621,2.075-4.041
		c0.507-1.348,0.455-2.718,0.691-4.117c0.192-1.136,0.66-2.184,1.018-3.271c0.87-2.652,1.151-5.45,1.167-8.229
		C159.771,62.696,159.802,61.813,159.922,60.941z"/>
	<g>
		<g>
			<g>
				<path fill="#7E8C8F" d="M50.32,111.236l-2.137,2.826c0.007,0.017-0.356-0.362-0.725-0.482c-0.185-0.067-0.473-0.09-1.009,0.08
					c-0.531,0.151-1.214,0.519-2.213,0.756c-0.499,0.11-1.105,0.155-1.687,0.02c-0.291-0.06-0.561-0.166-0.81-0.284
					c-0.209-0.118-0.416-0.221-0.602-0.354c-0.763-0.509-1.333-1.124-1.769-1.688c-0.864-1.142-1.345-2.067-1.59-2.479
					c-0.421-0.762-0.544-1.134-0.395-1.178c0.146-0.039,0.578,0.279,1.158,1.009c0.297,0.35,0.973,1.157,1.945,1.945
					c0.487,0.384,1.057,0.747,1.67,0.949c0.641,0.233,1.053,0.135,1.575-0.141c0.513-0.272,1.067-0.728,1.752-1.115
					c0.672-0.396,1.592-0.686,2.426-0.635c0.829,0.042,1.449,0.295,1.83,0.47C50.128,111.115,50.315,111.239,50.32,111.236z"/>
			</g>
		</g>
		<g>
			<g>
				<path fill="#7E8C8F" d="M61.044,99.184l-2.288,2.693c0-0.001,0.008-0.007,0.015-0.029c-0.004-0.017,0.016-0.021,0.004-0.04
					c-0.022-0.021-0.093-0.049-0.228-0.064c-0.269-0.036-0.767,0.007-1.419,0.048c-0.644,0.035-1.511,0.06-2.415-0.255
					c-0.44-0.152-0.889-0.409-1.215-0.68c-0.297-0.239-0.622-0.534-0.884-0.875c-0.543-0.674-0.83-1.514-0.892-2.212
					c-0.104-1.413,0.259-2.316,0.379-2.733c0.568-1.481,0.888-1.164,0.652,0.405c-0.035,0.382-0.104,1.327,0.284,2.282
					c0.198,0.469,0.531,0.889,0.971,1.177c0.206,0.141,0.478,0.272,0.721,0.373c0.229,0.085,0.453,0.116,0.678,0.115
					c0.902,0.004,1.848-0.586,3.084-0.792c0.311-0.048,0.648-0.063,0.978-0.024c0.343,0.042,0.653,0.128,0.879,0.226
					C60.814,98.994,61.041,99.191,61.044,99.184z"/>
			</g>
		</g>
		<g>
			<g>
				<path fill="#7E8C8F" d="M43.806,155.7l0.932,3.418c-0.005,0.016-0.12-0.012-0.402,0.184c-0.285,0.191-0.793,0.831-1.198,1.936
					c-0.852,2.207-1.254,5.78-1.58,9.549l-0.149,1.447c-0.053,0.492-0.139,1.017-0.204,1.457c-0.139,0.938-0.278,1.898-0.458,2.852
					c-0.35,1.9-0.922,3.81-1.892,5.36c-0.466,0.796-1.12,1.479-1.707,1.979c-0.6,0.519-1.192,0.929-1.732,1.274
					c-1.088,0.677-1.969,1.113-2.519,1.386c-2.023,0.969-2.9,1.313-2.831,1.111c0.066-0.217,1.16-0.954,3.187-2.133
					c0.499-0.305,1.301-0.802,2.221-1.553c0.914-0.756,1.957-1.773,2.536-3.232c0.624-1.435,0.926-3.14,1.073-4.93
					c0.077-0.898,0.123-1.813,0.181-2.758c0.063-0.898,0.061-1.816,0.067-2.742c0.005-3.703,0.046-7.34,0.865-10.189
					c0.398-1.415,1.073-2.688,1.959-3.467C43.041,155.864,43.833,155.711,43.806,155.7z"/>
			</g>
		</g>
		<g>
			<g>
				<path fill="#7E8C8F" d="M40.522,147.394l0.101,0.881c0.002,0.007-0.306,0.015-0.816,0.148c-0.506,0.133-1.221,0.415-1.87,1.068
					c-0.655,0.646-1.191,1.655-1.602,2.838c-0.423,1.182-0.732,2.531-1.216,3.89c-0.247,0.677-0.542,1.363-0.985,1.979
					c-0.436,0.635-1.076,1.101-1.697,1.443c-1.27,0.703-2.588,1.04-3.65,1.592c-2.076,1.204-3.583,2.529-4.222,3.143
					c-1.186,1.143-1.65,1.699-1.602,1.569c0.067-0.109,0.642-0.914,1.916-2.11c0.645-0.584,2.052-1.919,4.167-3.091
					c1.076-0.537,2.357-0.921,3.468-1.663c1.173-0.686,1.76-1.993,2.153-3.284c0.4-1.301,0.669-2.629,1.072-3.84
					c0.391-1.208,0.943-2.314,1.691-3.072c0.74-0.769,1.59-1.13,2.167-1.296C40.182,147.422,40.523,147.402,40.522,147.394z"/>
			</g>
		</g>
		<g>
			<g>
				<path fill="#7E8C8F" d="M41.939,136.45l-1.584,3.168c-0.006-0.001-0.537-0.331-1.476-0.82c-0.47-0.249-1.066-0.542-1.747-0.961
					c-0.68-0.414-1.397-0.99-1.984-1.631c-0.632-0.697-0.961-1.223-1.447-1.682c-0.46-0.457-0.941-0.817-1.4-1.02
					c-0.91-0.432-1.783-0.205-2.187-0.084c-0.741,0.233-1.126,0.386-1.159,0.221c-0.024-0.134,0.293-0.598,1.154-0.995
					c0.405-0.18,1.453-0.653,2.838-0.288c0.677,0.168,1.374,0.515,2.03,0.946c0.332,0.22,0.641,0.445,0.966,0.712
					c0.292,0.249,0.557,0.444,0.843,0.635c1.111,0.753,2.31,0.979,3.383,1.275C41.222,136.203,41.944,136.453,41.939,136.45z"/>
			</g>
		</g>
		<g>
			<g>
				<path fill="#7E8C8F" d="M58.885,177.278l3.531,0.287c-0.006-0.003-0.009,0.241-0.13,0.671c-0.119,0.421-0.394,0.977-0.808,1.465
					c-0.834,0.99-2.07,1.723-3.505,2.383c-2.861,1.324-6.771,2.312-10.509,3.725c-0.908,0.359-1.841,0.763-2.491,1.239
					c-0.781,0.576-1.364,1.127-1.689,1.821c-0.167,0.349-0.305,0.791-0.402,1.192c-0.082,0.388-0.148,0.914-0.218,1.391
					c-0.142,0.979-0.306,1.998-0.687,2.974c-0.183,0.481-0.458,0.974-0.729,1.354c-0.259,0.38-0.555,0.746-0.845,1.064
					c-0.587,0.643-1.188,1.162-1.754,1.591c-1.132,0.856-2.111,1.371-2.731,1.676c-2.299,1.082-3.452,1.11-3.29,0.95
					c0.136-0.208,1.536-0.666,3.714-2.019c0.538-0.344,1.391-0.931,2.314-1.842c0.888-0.914,1.979-2.16,2.287-3.824
					c0.173-0.831,0.219-1.732,0.279-2.688c0.045-0.962,0.208-2.034,0.714-3.043c0.258-0.503,0.606-0.964,0.983-1.362
					c0.388-0.402,0.751-0.748,1.221-1.11c0.909-0.662,1.854-1.133,2.792-1.585c3.751-1.728,7.43-3.024,9.754-4.379
					c1.163-0.647,1.933-1.324,2.128-1.676C58.996,177.183,58.852,177.303,58.885,177.278z"/>
			</g>
		</g>
		<g>
			<g>
				<path fill="#7E8C8F" d="M71.571,181.593l2.648,0.215c-0.013-0.015-0.028,0.816-0.525,1.963
					c-0.485,1.148-1.441,2.537-2.817,3.895c-1.396,1.354-3.097,2.759-5.378,3.899c-2.101,1.045-4.494,1.934-6.667,3.064
					c-1.078,0.563-2.153,1.225-2.945,1.984c-0.772,0.769-1.334,1.841-1.83,2.96c-0.5,1.122-0.945,2.306-1.539,3.434
					c-0.298,0.563-0.63,1.111-1.034,1.618c-0.399,0.48-0.767,0.897-1.149,1.324c-1.513,1.677-3,3.086-4.301,4.158
					c-1.302,1.075-2.403,1.821-3.078,2.286c-1.25,0.887-2.407,1.324-3.152,1.356c-0.745,0.043-1.024-0.089-0.896-0.118
					c0.122-0.061,0.671-0.026,1.506-0.336c0.845-0.291,1.859-1.019,3.109-1.982c1.268-0.937,3.951-3.208,6.606-6.624
					c1.456-1.604,2.028-3.906,2.976-6.229c0.481-1.151,1.106-2.365,2.132-3.3c0.979-0.903,2.088-1.604,3.195-2.238
					c2.23-1.248,4.473-2.223,6.392-3.317c1.814-1.073,3.346-2.456,4.451-3.682c1.118-1.238,1.782-2.393,2.05-3.168
					C71.601,181.974,71.555,181.594,71.571,181.593z"/>
			</g>
		</g>
		<g>
			<g>
				<path fill="#7E8C8F" d="M81.735,182.71l3.188-1.545c-0.015,0.006,0.305,0.561,0.59,1.676c0.293,1.098,0.435,2.837-0.074,4.675
					c-0.457,1.832-1.581,3.697-2.507,5.36l-0.116,0.227l-0.134,0.217l-0.242,0.373c-0.166,0.248-0.345,0.49-0.531,0.73
					c-0.374,0.479-0.794,0.934-1.24,1.358c-0.895,0.85-1.894,1.548-2.842,2.187c-0.952,0.642-1.857,1.25-2.671,1.936
					c-0.435,0.37-0.735,0.632-1.002,1.004c-0.269,0.363-0.497,0.778-0.684,1.233c-0.754,1.837-0.942,4.058-1.523,6.072
					c-0.56,2.093-1.698,3.74-2.68,4.898c-0.995,1.178-1.883,1.981-2.45,2.475c-2.102,1.779-3.239,2.239-3.127,2.023
					c0.082-0.249,1.37-1.202,3.334-3.223c0.483-0.51,1.244-1.352,2.031-2.544c0.797-1.188,1.526-2.763,1.799-4.652
					c0.343-1.873,0.349-4.028,1.214-6.242c0.227-0.545,0.515-1.09,0.903-1.583c0.403-0.508,0.815-0.894,1.241-1.294
					c0.855-0.79,1.777-1.49,2.633-2.172c1.737-1.338,3.069-2.798,3.754-4.471c0.908-1.897,1.607-3.427,1.807-4.759
					c0.223-1.313,0.018-2.3-0.213-2.957C81.959,183.055,81.724,182.713,81.735,182.71z"/>
			</g>
		</g>
		<g>
			<g>
				<path fill="#7E8C8F" d="M91.206,180.003l1.633-0.688c0.059-0.011-0.139,0.181,0.712,0.473c0.202,0.064,0.448,0.123,0.728,0.183
					c0.304,0.067,0.542,0.104,0.999,0.229c0.479,0.185,1.152,0.239,1.899,0.364c0.746,0.13,1.576,0.335,2.271,0.901
					c0.656,0.526,1.055,1.308,1.192,1.986c0.256,1.375,0.04,2.368,0.02,2.826c-0.165,1.655-0.369,1.449-0.344-0.319
					c-0.017-0.428,0.052-1.452-0.365-2.552c-0.214-0.539-0.625-1.037-1.168-1.34c-0.54-0.286-1.205-0.379-1.874-0.401l-1.037-0.032
					c-0.178-0.01-0.357-0.024-0.54-0.048l-0.275-0.045c-0.102-0.022-0.19-0.045-0.206-0.039c-0.581-0.071-1.183-0.09-1.745-0.204
					c-0.557-0.101-1.115-0.345-1.457-0.688C91.308,180.273,91.214,179.993,91.206,180.003z"/>
			</g>
		</g>
		<g>
			<g>
				<path fill="#7E8C8F" d="M112.075,163.004l3.076-1.758c0.001-0.009,0.011,0.183,0.704,1.017c0.164,0.207,0.358,0.449,0.57,0.759
					c0.212,0.321,0.431,0.659,0.639,1.254c0.157,0.627,0.134,1.034,0.118,1.45c-0.025,0.405-0.078,0.779-0.131,1.136l-0.149,0.994
					c-0.042,0.232-0.036,0.502-0.016,0.755c0.047,0.505,0.189,0.829,0.418,1.052c0.494,0.479,1.511,0.454,1.881,0.444
					c0.749-0.024,1.134-0.013,1.116,0.147c-0.018,0.141-0.432,0.437-1.284,0.601c-0.213,0.035-0.552,0.114-1.007,0.133
					c-0.446,0.016-1.045-0.027-1.632-0.4c-0.59-0.367-1.029-1.071-1.248-1.801c-0.114-0.351-0.198-0.777-0.227-1.151l-0.093-1.053
					c-0.032-0.333-0.071-0.648-0.131-0.919c-0.028-0.138-0.066-0.255-0.104-0.359c-0.045-0.107-0.068-0.114-0.115-0.159
					c-0.171-0.161-0.572-0.501-0.938-0.767c-0.373-0.279-0.748-0.584-1.017-0.862C112.235,163.236,112.074,162.996,112.075,163.004z
					"/>
			</g>
		</g>
		<g>
			<g>
				<path fill="#7E8C8F" d="M117.896,154.285l1.253-1.252c0.027-0.009,0.116,0.245,0.688,0.454c0.29,0.111,0.702,0.196,1.205,0.353
					c0.495,0.146,1.083,0.428,1.515,0.859l-0.04-0.032c1.293,1.14,1.558,2.666,1.617,3.126c0.055,0.525-0.021,0.756-0.089,0.723
					c-0.079-0.032-0.15-0.321-0.302-0.815c-0.107-0.387-0.695-1.658-1.802-2.265l0.028,0.016l-0.05-0.034
					c-0.704-0.469-1.598-0.339-2.481-0.473C118.522,154.839,117.874,154.262,117.896,154.285z"/>
			</g>
		</g>
		<g>
			<g>
				<path fill="#7E8C8F" d="M121.297,148.264l-0.411-1.723c0.002,0.002,0.126-0.026,0.373-0.054c0.124-0.013,0.28-0.023,0.483-0.014
					c0.195,0.009,0.519,0.058,0.795,0.203c0.282,0.142,0.536,0.394,0.691,0.721c0.164,0.355,0.185,0.649,0.196,0.906
					c0.014,0.522-0.064,0.985-0.095,1.413c-0.016,0.209-0.023,0.414-0.004,0.563c0.023,0.163,0.018,0.163,0.097,0.264
					c0.086,0.127,0.361,0.159,0.673,0.039c0.616-0.236,1.051-0.722,1.228-0.914c0.332-0.378,0.472-0.567,0.525-0.499
					c0.043,0.06-0.014,0.393-0.353,0.865c-0.177,0.221-0.519,0.789-1.273,1.198c-0.35,0.198-0.985,0.312-1.458-0.103
					c-0.233-0.182-0.383-0.509-0.439-0.759c-0.068-0.263-0.097-0.514-0.12-0.753c-0.043-0.475-0.063-0.923-0.146-1.245
					c-0.042-0.171-0.098-0.266-0.131-0.27c-0.039-0.025-0.081-0.027-0.112-0.019c-0.015,0.024-0.179,0.054-0.313,0.102
					L121.297,148.264z"/>
			</g>
		</g>
		<g>
			<g>
				<path fill="#7E8C8F" d="M127.713,134.715l1.119-3.361c0,0.015,0.599,0.21,1.546,0.797c0.467,0.298,1.022,0.735,1.484,1.287
					c0.469,0.549,0.825,1.16,1.127,1.742c0.184,0.351,0.194,0.421,0.295,0.568c0.089,0.131,0.206,0.243,0.35,0.341
					c0.287,0.197,0.699,0.301,1.102,0.306c0.824,0.016,1.507-0.313,1.787-0.46c0.528-0.279,0.787-0.445,0.88-0.318
					c0.08,0.108-0.041,0.556-0.645,1.033c-0.297,0.223-0.962,0.795-2.08,1.053c-0.552,0.12-1.228,0.155-1.925-0.088
					c-0.346-0.12-0.689-0.31-0.993-0.562c-0.152-0.125-0.292-0.266-0.423-0.418l-0.308-0.334c-0.803-0.886-1.55-1.259-2.18-1.399
					C128.21,134.748,127.706,134.719,127.713,134.715z"/>
			</g>
		</g>
		<g>
			<g>
				<path fill="#7E8C8F" d="M132.462,126.775l0.371-1.732l1.084,0.296c0.662,0.194,1.593,0.419,2.558,0.92
					c0.478,0.25,0.956,0.602,1.315,1.043s0.585,0.943,0.701,1.396c0.233,0.911,0.172,1.618,0.154,1.938
					c-0.149,1.164-0.321,0.979-0.364-0.199c-0.026-0.289-0.103-0.964-0.455-1.672c-0.339-0.726-1.064-1.292-1.899-1.517
					c-0.83-0.244-1.71-0.31-2.367-0.375L132.462,126.775z"/>
			</g>
		</g>
		<g>
			<g>
				<path fill="#7E8C8F" d="M135.611,120.927l1.822-3.037c-0.006,0.011,0.368,0.24,0.838,0.829c0.228,0.295,0.451,0.695,0.581,1.088
					c0.134,0.394,0.181,0.734,0.204,0.921c-0.021,0.097-0.019,0.211,0.034,0.318c0.05,0.107,0.276,0.294,0.441,0.416
					c0.363,0.269,0.696,0.435,0.827,0.515c0.214,0.153,0.355,0.27,0.355,0.415c0.001,0.139-0.186,0.302-0.573,0.274
					c-0.188-0.013-0.622,0.018-1.192-0.041c-0.293-0.037-0.588-0.061-0.98-0.225c-0.381-0.144-0.733-0.466-0.994-0.809
					c-0.474-0.642-0.775-0.73-0.99-0.71C135.769,120.895,135.608,120.93,135.611,120.927z"/>
			</g>
		</g>
		<g>
			<g>
				<path fill="#7E8C8F" d="M142.451,108.609l0.642-1.65l0.568,0.246c0.362,0.18,0.917,0.373,1.597,0.947
					c0.334,0.29,0.647,0.728,0.821,1.185c0.179,0.458,0.263,0.917,0.323,1.372c0.123,0.89,0.118,1.894,0.121,2.785
					c0.013,0.9,0.137,1.719,0.647,2.189c0.503,0.491,1.361,0.707,2.086,0.758c1.512,0.086,2.705-0.463,3.18-0.736
					c0.906-0.509,1.201-0.887,1.217-0.76c-0.01,0.086-0.351,0.688-1.375,1.263c-0.494,0.277-1.689,0.897-3.349,0.865
					c-0.803-0.043-1.775-0.191-2.534-0.921c-0.758-0.752-0.913-1.861-1.006-2.77c-0.139-1.788-0.414-3.688-1.182-4.057
					c-0.387-0.261-0.886-0.422-1.216-0.539L142.451,108.609z"/>
			</g>
		</g>
		<g>
			<g>
				<path fill="#7E8C8F" d="M147.764,98.367l1.517-0.916c0.009-0.012,0.162,0.55,0.672,0.896c0.49,0.387,1.328,0.391,1.569,0.374
					c0.452-0.019,0.496,0.187,0.007,0.366c-0.223,0.075-1.09,0.504-2.081,0.269C148.449,99.158,147.755,98.346,147.764,98.367z"/>
			</g>
		</g>
		<g>
			<g>
				<path fill="#7E8C8F" d="M152.075,91.991l-0.605-1.665c0.002,0,0.376-0.111,1.032-0.351c0.655-0.217,1.6-0.608,2.756-0.615
					c0.577-0.001,1.162,0.126,1.683,0.375c0.548,0.252,0.99,0.755,1.181,1.207c0.37,0.909,0.441,1.508,0.567,1.778
					c0.172,0.491,0.283,0.7,0.197,0.717c-0.073,0.01-0.352-0.203-0.604-0.752c-0.147-0.251-0.349-0.924-0.803-1.561
					c-0.447-0.644-1.435-0.799-2.242-0.635c-0.824,0.174-1.567,0.622-2.148,0.947C152.513,91.773,152.073,91.993,152.075,91.991z"/>
			</g>
		</g>
		<g>
			<g>
				<path fill="#7E8C8F" d="M158.699,80.543l-0.104-1.769c0.001,0.009,0.216-0.024,0.622,0.058c0.406,0.073,0.979,0.381,1.352,0.83
					c0.759,0.867,1.131,2.046,1.937,2.572c0.394,0.266,0.88,0.35,1.477,0.319c0.563-0.021,1.096-0.142,1.539-0.353
					c0.9-0.413,1.411-1.113,1.628-1.421c0.396-0.583,0.554-0.876,0.607-0.793c0.032,0.069-0.023,0.53-0.444,1.206
					c-0.208,0.323-0.675,1.118-1.676,1.677c-0.492,0.276-1.096,0.485-1.742,0.574c-0.626,0.104-1.417,0.065-2.066-0.304
					c-0.658-0.354-1.112-0.903-1.481-1.355c-0.366-0.46-0.673-0.852-0.933-1.053c-0.26-0.207-0.415-0.212-0.524-0.214
					C158.776,80.523,158.697,80.547,158.699,80.543z"/>
			</g>
		</g>
		<g>
			<g>
				<path fill="#7E8C8F" d="M161.333,64.303l0.879-1.538c-0.006-0.014,0.281,0.219,0.592,0.251c0.156,0.018,0.376-0.018,0.703-0.192
					c0.323-0.166,0.712-0.447,1.202-0.693c0.479-0.26,1.127-0.413,1.688-0.37c0.585,0.033,1.158,0.28,1.525,0.607
					c0.733,0.662,0.986,1.307,1.14,1.576c0.474,1.03,0.229,0.992-0.41,0.017c-0.169-0.223-0.56-0.795-1.235-1.153
					c-0.674-0.364-1.602-0.192-2.218,0.341c-0.332,0.258-0.642,0.58-1.024,0.87c-0.373,0.291-0.881,0.539-1.376,0.571
					C161.801,64.628,161.34,64.267,161.333,64.303z"/>
			</g>
		</g>
		<g>
			<g>
				<path fill="#7E8C8F" d="M159.022,52.92v-1.771c0.019,0.002,0.449,0.026,1.386-0.028c0.493-0.015,1.122,0.005,1.813,0.266
					c0.36,0.143,0.678,0.372,0.908,0.552c0.238,0.187,0.408,0.307,0.591,0.379c0.336,0.144,0.984,0.109,1.349-0.047
					c0.368-0.14,0.542-0.479,0.608-0.955c0.095-0.941-0.066-1.852-0.061-2.248c-0.033-0.749,0.068-1.09,0.133-1.028
					c0.07,0.06,0.128,0.492,0.255,1.247c0.032,0.385,0.318,1.182,0.297,2.286c-0.021,0.276-0.079,0.581-0.244,0.87
					c-0.165,0.287-0.438,0.535-0.749,0.683c-0.618,0.277-1.297,0.425-2.052,0.223c-0.364-0.104-0.671-0.299-0.915-0.435
					c-0.247-0.14-0.442-0.226-0.63-0.255c-0.427-0.076-0.839-0.04-1.222,0.033C159.691,52.858,159.006,52.926,159.022,52.92z"/>
			</g>
		</g>
		<g>
			<g>
				<path fill="#7E8C8F" d="M143.038,40.395l-1.282-1.222c-0.006-0.004,0.335-0.287,0.744-0.846c0.406-0.554,0.87-1.408,1.052-2.372
					c0.202-0.959,0.065-1.993-0.372-2.697c-0.426-0.714-1.06-1.084-1.34-1.24c-0.527-0.285-0.792-0.397-0.723-0.463
					c0.059-0.046,0.455-0.045,1.081,0.233c0.298,0.143,1.021,0.464,1.616,1.256c0.609,0.776,0.923,2.007,0.841,3.165
					C144.549,38.583,143.03,40.423,143.038,40.395z"/>
			</g>
		</g>
		<g>
			<g>
				<path fill="#7E8C8F" d="M131.768,41.531l-2.742-2.243l0.173-0.174c0.021-0.015,0.021-0.037,0.051-0.025
					c0.271,0.146,0.576,0.256,0.775,0.305c0.441,0.145,0.491-0.187-0.049,0.344c-0.056,0.063-0.141,0.155-0.223,0.258l-0.138,0.177
					c-0.043,0.057-0.011,0.014-0.02,0.025c-0.005-0.01-0.021-0.027-0.051-0.051c-0.059-0.048-0.158-0.115-0.278-0.192l-0.42-0.276
					l-0.317-0.225l-0.167-0.107c-0.054-0.035-0.11-0.068-0.24-0.137c-0.252-0.131-0.527-0.273-0.757-0.443
					c-0.462-0.327-0.809-0.841-0.875-1.423c-0.04-0.287-0.029-0.585,0.014-0.882c0.037-0.272,0.125-0.663,0.162-0.772
					c0.079-0.37,0.234-0.852,0.408-1.209c0.353-0.756,0.811-1.373,1.278-1.877c0.933-1.014,1.94-1.537,2.426-1.707
					c0.904-0.319,1.365-0.158,1.308-0.026c-0.042,0.158-0.524,0.335-1.239,0.803c-0.358,0.228-1.076,0.889-1.604,1.901
					c-0.264,0.5-0.486,1.083-0.578,1.674c-0.056,0.318-0.042,0.537-0.048,0.911c0.016,0.214,0.043,0.379,0.121,0.523
					c0.074,0.151,0.275,0.198,0.421,0.207c0.085,0.011,0.122-0.002,0.227,0.02c0.158,0.046,0.336,0.107,0.501,0.168
					c0.407,0.167,0.54,0.205,0.832,0.303c0.272,0.108,0.595,0.184,1.072,0.585c0.235,0.207,0.509,0.575,0.617,1.007
					c0.112,0.428,0.073,0.798,0.022,1.054c-0.115,0.519-0.254,0.753-0.352,0.963C131.877,41.371,131.769,41.524,131.768,41.531z"/>
			</g>
		</g>
		<g>
			<g>
				<path fill="#7E8C8F" d="M113.337,52.831l-0.63,1.655c0.004-0.005-0.213-0.065-0.502-0.316c-0.281-0.248-0.512-0.653-0.628-1.062
					c-0.24-0.825-0.227-1.757-0.25-2.689c-0.013-0.901-0.061-1.919-0.362-2.326c-0.203-0.377-0.899-0.178-1.135-0.095
					c-0.483,0.164-0.723,0.247-0.725,0.159c0.002-0.073,0.231-0.322,0.763-0.562c0.134-0.055,0.346-0.157,0.649-0.204
					c0.293-0.058,0.743,0.036,1.033,0.394c0.564,0.707,0.709,1.729,0.907,2.625c0.176,0.901,0.363,1.771,0.61,2.194
					C113.355,53.036,113.34,52.785,113.337,52.831z"/>
			</g>
		</g>
		<g>
			<g>
				<path fill="#7E8C8F" d="M116.94,49.573l-0.585,1.672c-0.001-0.004-0.135-0.049-0.383-0.177
					c-0.232-0.138-0.653-0.324-1.002-0.922c-0.166-0.294-0.242-0.684-0.211-1.009c0.026-0.33,0.116-0.612,0.215-0.866
					c0.198-0.5,0.457-0.939,0.57-1.305c0.059-0.185,0.07-0.304,0.05-0.384c-0.035-0.133-0.119-0.269-0.242-0.392
					c-0.258-0.249-0.667-0.432-1.055-0.548c-0.79-0.232-1.504-0.271-1.818-0.301c-0.585-0.047-0.847-0.083-0.81-0.161
					c0.037-0.072,0.385-0.18,1.023-0.197c0.318-0.002,1.021-0.069,1.916,0.068c0.442,0.077,0.949,0.203,1.415,0.561
					c0.23,0.195,0.426,0.411,0.552,0.75c0.12,0.342,0.087,0.679,0.041,0.964c-0.107,0.57-0.293,1.041-0.362,1.43
					c-0.085,0.408,0.008,0.589,0.081,0.605C116.493,49.483,116.974,49.582,116.94,49.573z"/>
			</g>
		</g>
		<g>
			<g>
				<path fill="#7E8C8F" d="M107.617,58.384l-2.388,2.236l-0.234-0.128c-0.143-0.092-0.288-0.285-0.448-0.541
					c-0.157-0.259-0.299-0.613-0.354-1.037c-0.058-0.438-0.001-0.917,0.069-1.231c0.07-0.335,0.151-0.613,0.194-0.803
					c0.022-0.09,0.032-0.153,0.043-0.155c0.375-0.034,0.58-0.129,0.59-0.141c0.012-0.008-0.02,0.011-0.074,0.07
					c-0.019,0.013-0.049,0.084-0.06,0.141c-0.014,0.028,0.007,0.062-0.028,0.086l-0.119,0.074c-0.045,0.035-0.077,0.045-0.088,0.02
					l-0.007-0.005l-0.003-0.002c0.255-0.153,0.074-0.047,0.132-0.084l0.02-0.036l0.036-0.075c0.047-0.116,0.077-0.187,0.099-0.265
					c0.042-0.131,0.034-0.216,0.036-0.171c-0.003,0.03,0.034,0.253,0.181,0.636c-0.006-0.006-0.058,0.01-0.152,0.048
					c-0.172,0.074-0.522,0.21-0.822,0.26c-1.203,0.199-2.237-0.1-3.146-0.716c-0.453-0.339-0.832-0.732-1.097-1.374
					c-0.083-0.2-0.088-0.271-0.107-0.354l-0.015-0.065l-0.023-0.095l-0.004-0.026L99.84,54.6c-0.009-0.068-0.019-0.136-0.021-0.202
					c-0.019-0.268,0.001-0.521,0.042-0.749c0.185-0.911,0.571-1.471,0.849-1.918c0.291-0.44,0.522-0.748,0.666-0.939
					c0.529-0.689,0.742-0.938,0.864-0.844c0.121,0.097,0.048,0.639-0.403,1.476c-0.107,0.21-0.272,0.554-0.439,1.003
					c-0.16,0.443-0.337,1.022-0.262,1.585c0.019,0.13,0.06,0.291,0.108,0.378c0.077,0.188,0.135,0.248,0.223,0.341
					c0.181,0.193,0.427,0.338,0.703,0.43c0.542,0.192,1.242,0.14,1.613-0.091c0.083-0.049,0.16-0.122,0.357-0.246
					c0.176-0.116,0.568-0.313,1.032-0.298c0.225,0.002,0.424,0.049,0.595,0.103l0.122,0.043l0.031,0.011l0.075,0.037l0.031,0.012
					c0.052,0.023,0.06,0.016,0.148,0.064c0.391,0.219,0.635,0.461,0.85,0.815c0.389,0.709,0.349,1.289,0.358,1.673
					c-0.005,0.4-0.026,0.689-0.011,0.886c0.011,0.218,0.059,0.229,0.091,0.239c0.036,0.013,0.069,0.012,0.093,0.006
					C107.604,58.403,107.616,58.383,107.617,58.384z"/>
			</g>
		</g>
		<g>
			<g>
				<path fill="#7E8C8F" d="M96.192,67.264l0.161,3.539c-0.011-0.007-0.188,0.008-0.607-0.049c-0.2-0.028-0.487-0.079-0.857-0.232
					c-0.365-0.15-0.879-0.48-1.202-1.02c-0.324-0.532-0.388-1.09-0.372-1.492c0.016-0.417,0.093-0.757,0.18-1.072
					c0.177-0.622,0.412-1.161,0.593-1.646c0.089-0.23,0.168-0.481,0.2-0.583c0.039-0.088,0.05-0.162,0.017-0.334
					c-0.053-0.285-0.233-0.573-0.528-0.837c-0.597-0.522-1.372-0.888-1.679-1.097c-0.599-0.371-0.817-0.672-0.701-0.767
					c0.113-0.098,0.526-0.027,1.2,0.2c0.335,0.137,1.113,0.238,2.07,0.704c0.47,0.24,0.996,0.656,1.323,1.285
					c0.167,0.3,0.289,0.716,0.288,1.103c0.014,0.359-0.008,0.679-0.03,0.982c-0.047,0.601-0.104,1.15-0.077,1.566
					c0.012,0.204,0.049,0.373,0.1,0.435c0.015,0.008,0.022,0.032,0.037,0.023c0.037-0.007-0.083,0.013-0.125,0.025l-0.14,0.033
					c-0.09,0.027-0.162,0.057-0.199,0.071l-0.094,0.052c-0.062,0.056,0.088-0.074,0.172-0.339c0.027-0.071,0.046-0.14,0.059-0.206
					c0.023-0.076,0.052-0.195,0.059-0.24c-0.005-0.012,0.01-0.024,0.027-0.036C96.119,67.294,96.202,67.261,96.192,67.264z"/>
			</g>
		</g>
		<g>
			<g>
				<path fill="#7E8C8F" d="M92.497,72.474l-1.068,1.413c0.003-0.003-0.321-0.262-0.75-0.728c-0.429-0.463-0.929-1.156-1.33-1.888
					c-0.409-0.727-0.749-1.475-1.133-1.891c-0.368-0.425-0.829-0.509-1.057-0.544c-0.414-0.056-0.632-0.075-0.607-0.157
					c0.022-0.063,0.283-0.206,0.783-0.191c0.235,0.004,0.838,0.033,1.415,0.504c0.573,0.452,1.065,1.15,1.58,1.719
					C91.329,71.902,92.499,72.475,92.497,72.474z"/>
			</g>
		</g>
		<g>
			<g>
				<path fill="#7E8C8F" d="M85.522,77.387v3.543c-0.017-0.024-0.262,0.055-1.038-0.205c-0.38-0.128-0.954-0.521-1.244-1.023
					c-0.296-0.49-0.366-0.897-0.423-1.174l-0.095-0.548c-0.003-0.02-0.004-0.036-0.004-0.044c-0.014-0.028,0.074,0.073-0.008-0.041
					c-0.053-0.084-0.069-0.116-0.077-0.14c-0.034-0.053-0.038-0.099-0.158-0.142c-0.154-0.053-0.501-0.064-0.965-0.113
					c-0.449-0.041-1.076-0.196-1.523-0.46c-0.4-0.211-0.874-0.56-1.205-0.976c-0.706-0.865-0.831-1.911-0.772-2.659
					c0.143-1.536,0.679-2.478,0.891-2.925c0.434-0.796,0.757-1.056,0.85-0.939c0.102,0.123-0.023,0.625-0.288,1.482
					c-0.113,0.417-0.369,1.444-0.149,2.59c0.111,0.564,0.41,1.095,0.864,1.37c0.221,0.14,0.494,0.23,0.776,0.296
					c0.24,0.041,0.472,0.021,0.78-0.025c0.305-0.042,0.684-0.128,1.198-0.1c0.542,0.031,1.09,0.233,1.525,0.562
					c0.212,0.149,0.417,0.362,0.52,0.454c0.232,0.264,0.346,0.447,0.467,0.663c0.223,0.41,0.333,0.744,0.428,0.939
					c0.046,0.097,0.086,0.16,0.112,0.176c0.007,0.007,0.012,0.004,0.016,0.004l-0.244,0.113c-0.15,0.075-0.241,0.133-0.305,0.175
					c-0.248,0.191-0.11,0.138-0.061-0.058c0.065-0.186,0.117-0.508,0.121-0.714C85.525,77.332,85.52,77.415,85.522,77.387z"/>
			</g>
		</g>
		<g>
			<g>
				<path fill="#7E8C8F" d="M73.907,88.874l-1.77,0.07c-0.031,0.015,0.123-1.503,0.028-2.876c-0.063-0.688-0.312-1.219-0.774-1.544
					c-0.455-0.33-0.973-0.473-1.192-0.551c-0.844-0.235-0.733-0.443,0.227-0.317c0.234,0.048,0.773,0.077,1.409,0.382
					c0.659,0.281,1.231,1.093,1.45,1.887c0.249,0.792,0.356,1.538,0.459,2.074L73.907,88.874z"/>
			</g>
		</g>
		<g>
			<g>
				<path fill="#7E8C8F" d="M65.973,94.862l-1.152,1.345c0.016-0.001-0.368-0.296-0.626-0.922c-0.264-0.625-0.248-1.36-0.299-1.927
					c-0.026-0.296-0.072-0.498-0.187-0.84l-0.125-0.391c-0.016-0.063-0.041-0.126-0.089-0.17c-0.053-0.044-0.097-0.065-0.178-0.089
					l-0.322-0.068l-0.483-0.102c-0.769-0.205-0.634-0.385,0.173-0.342c0.102,0.004,0.265,0,0.473-0.01
					c0.193,0.003,0.501-0.057,0.79,0.12c0.135,0.087,0.25,0.238,0.345,0.383l0.259,0.408c0.171,0.251,0.356,0.625,0.461,0.945
					c0.217,0.667,0.394,1.211,0.606,1.413C65.812,94.824,65.977,94.851,65.973,94.862z"/>
			</g>
		</g>
		<g>
			<g>
				<path fill="#7E8C8F" d="M157.019,48.522l-5.493-4.476c-0.016-0.009,1.012-1.117,2.484-3.3c1.446-2.175,3.359-5.511,4.341-9.86
					c0.478-2.161,0.701-4.573,0.378-7.004c-0.317-2.417-1.213-4.866-2.857-6.668c-0.409-0.449-0.859-0.86-1.354-1.216
					c-0.255-0.187-0.482-0.331-0.792-0.512l-1.018-0.572c-1.362-0.739-2.749-1.387-4.14-1.832c-2.79-0.914-5.517-0.859-8.16,0.455
					c-2.648,1.289-5.088,3.621-7.229,6.212c-0.538,0.651-1.06,1.322-1.568,2.007c-0.505,0.676-0.995,1.39-1.53,2.137
					c-1.048,1.47-2.122,2.922-3.251,4.34c-2.258,2.806-4.742,5.615-8.022,7.588c-1.626,0.977-3.406,1.658-5.125,2.078
					c-1.724,0.427-3.387,0.636-4.974,0.79c-1.588,0.149-3.111,0.238-4.58,0.322c-1.457,0.078-2.888,0.168-4.303,0.205
					c-2.801,0.078-5.371,0.007-7.637,0.004c-2.264-0.005-4.227,0.078-5.786,0.392c-1.565,0.301-2.706,0.834-3.509,1.372
					c-1.476,0.983-2.445,2.319-3.164,3.512c-0.715,1.205-1.187,2.283-1.55,3.112c-0.709,1.673-1.009,2.366-1.069,2.016
					c-0.033-0.338,0.142-1.73,0.956-3.982c0.42-1.115,1.009-2.458,2.031-3.816c1.009-1.354,2.569-2.665,4.668-3.356
					c1.038-0.359,2.444-0.665,4.153-0.834c1.708-0.177,3.712-0.236,5.947-0.311c2.237-0.075,4.704-0.179,7.351-0.457
					c2.653-0.276,5.518-0.507,8.427-1.06c1.45-0.284,2.905-0.668,4.284-1.267c1.381-0.593,2.676-1.409,3.866-2.414
					c2.383-2.015,4.388-4.67,6.308-7.439c0.961-1.396,1.879-2.816,2.818-4.29c0.959-1.489,1.993-2.953,3.131-4.363
					c2.276-2.79,4.987-5.502,8.606-7.106c1.793-0.793,3.801-1.229,5.776-1.232c1.979-0.008,3.887,0.381,5.636,0.945
					c1.754,0.567,3.371,1.3,4.894,2.072c0.356,0.183,0.804,0.41,1.219,0.67c0.417,0.252,0.817,0.528,1.2,0.821
					c0.767,0.586,1.467,1.244,2.085,1.951c2.496,2.849,3.705,6.298,4.189,9.48c0.483,3.21,0.274,6.237-0.226,8.917
					c-1.029,5.382-3.137,9.379-4.707,12.005C158.121,47.184,157.001,48.51,157.019,48.522z"/>
			</g>
		</g>
	</g>
</g>
<g id="Layer_4">
	<g>
		<g>
			<path fill="#7E8C8F" d="M99.215,156.131c6.72-4.303,1.576-10.136-4.242-12.097c0.025,1.311,0.05,2.62,0.075,3.931
				c4.984-2.873,9.947-5.512,15.152-7.963c1.712-0.807,2.303-1.948,2.335-3.763c0.085-4.896-6.766-3.925-9.434-6.664
				c0.199,0.204,7.089-3.05,8.363-3.416c2.19-0.629,6.845-0.356,8.05-2.728c0.793-1.56,1.613-4.07,0.696-5.786
				c-2.077-3.885-6.703-2.777-10.095-4.704c0.021,1.219,0.043,2.438,0.065,3.657c3.357-5.212,8.614-5.649,14.182-6.604
				c2.547-0.437,4.899-1.776,5.379-4.498c0.469-2.66,0.11-5.296-1-7.75c-1.474-3.256-5.63-1.984-8.187-1.215
				c-1.607,0.483-3.204,0.932-4.859,1.218c-2.652,0.458-1.763-0.887-0.823-2.57c1.393-2.493,3.423-4.176,6.195-4.873
				c2.002-0.503,4.112,0.289,6.162-0.128c2.119-0.431,2.708-3.556,2.591-5.309c-0.248-3.704-1.712-6.857-4.834-9.01
				c-3.478-2.396-8.222-0.981-11.835,0.181c-2.535,0.815-7.313,2.167-8.703,4.752c-0.839,1.56-1.046,3.433-0.688,5.172
				c0.231,1.128,0.662,2.075,1.246,3.069c0.312,0.53,0.666,1.038,1.005,1.55c1.491,2.249,0.292,1.181,0.645,0.809
				c-5.641,5.948-20.834-5.893-24.17,3.722c-0.643,1.853-0.142,4.099,0.483,5.87c1.591,4.511,5.787,4.795,9.126,7.142
				c0.022-1.286,0.045-2.571,0.067-3.857c-3.713,2.862-8.365,3.991-13,3.987c-2.192-0.002-5.789-0.303-6.967,2.165
				c-2.288,4.793-0.395,8.233,3.562,11.274c3.044,2.339,5.78,4.557,1.592,7.428c-3.383,2.319-7.219,2.081-10.928,3.249
				c-4.684,1.475-3.915,9.496-1.66,12.42c0.644,0.835,1.826,1.476,2.747,1.938c0.597,0.308,1.199,0.603,1.808,0.885
				c2.926,1.396,1.077,0.685,1.034,0.733c-1.835,2.108-6.121,2.801-7.32,5.287c-1.828,3.79,1.608,9.102,4.116,11.661
				c2.876,2.935,8.74,5.214,9.274-0.601c0.085-0.927-0.234-2.876,0.34-3.668c1.563-2.154,6.682-2.134,8.934-1.711
				C90.486,160.219,95.104,158.5,99.215,156.131c0.824-0.475,0.371-4.202-0.22-3.861c-4.089,2.356-8.509,3.863-13.232,3.049
				c-3.116-0.537-7.763-0.164-9.799,2.644c-0.813,1.121-0.647,3.123-0.6,4.413c0.169,4.561-5.964,0.6-7.19-0.338
				c-0.861-0.66-1.539-1.473-2.121-2.378c-0.546-0.824-1.061-1.669-1.542-2.535c-0.325-1.281-0.598-1.349-0.817-0.203
				c1.661-2.004,4.907-2.908,6.875-4.711c2.378-2.179,2.69-6.395-0.232-8.115c-1.138-0.671-2.389-1.159-3.539-1.816
				c-2.72-1.556-2.619-5.223,0.604-6.236c2.692-0.848,5.4-0.853,8.088-1.968c4.226-1.754,5.993-4.649,5.896-9.031
				c-0.105-4.8-5.48-6.861-8.342-9.877c-2.78-2.931,7.212-2.917,8.025-2.966c4.083-0.246,8.076-1.574,11.312-4.068
				c0.624-0.481,0.738-3.386,0.067-3.857c-2.755-1.936-5.63-2.338-7.907-5.096c-3.96-4.796,7.638-3.495,9.695-3.145
				c3.844,0.654,12.963,2.509,13.78-3.258c0.333-2.352-3.241-8.292-2.635-8.978c2.207-2.498,6.761-3.494,9.855-4.431
				c4.994-1.512,10.128-0.831,12.813,4.13c2.002,3.698-7.246,2.73-9.232,3.6c-2.369,1.038-3.848,3.58-5.051,5.731
				c-0.782,1.4-3.346,7.914-0.355,8.778c2.267,0.655,4.908-0.402,7.072-1.074c1.359-0.422,2.691-0.761,4.106-0.926
				c1.979-0.231,5.796,1.822,3.621,4.707c-1.871,2.483-7.752,2.162-10.49,2.829c-3.498,0.853-6.114,3.026-8.026,5.994
				c-0.365,0.566-0.661,3.245,0.065,3.657c1.336,0.76,2.43,1.077,3.97,1.357c0.857,0.157,7.133,1.126,3.736,2.705
				c-2.226,1.033-5.071,1.026-7.448,1.755c-3.456,1.06-8.129,2.677-8.239,6.927c-0.113,4.399,2.846,5.332,6.536,6.517
				c1.079,0.347,2.155,0.721,3.081,1.389c0.683-2.282,0.535-2.904-0.442-1.865c-1.107,0.65-2.262,1.202-3.463,1.653
				c-4.418,1.865-8.519,4.484-12.663,6.873c-0.677,0.391-0.721,3.662,0.075,3.931c1.621,0.546,3.093,1.215,4.503,2.187
				c1.89,1.304,1.915,0.56-0.411,2.049C98.171,152.798,98.679,156.473,99.215,156.131z"/>
		</g>
	</g>
	<g>
		<g>
			<path fill="#7E8C8F" d="M90.031,163.867c-4.239,0.229-4.278,6.938-0.018,7.167C94.246,171.261,94.276,164.095,90.031,163.867
				c-0.188-0.01-0.224,0.988-0.018,1c1.213,0.065,2.178,0.653,2.742,1.74c0.986,1.902-1.213,3.346-2.724,3.427
				c-1.185,0.063-2.222-0.735-2.743-1.741c-0.987-1.903,1.214-3.345,2.725-3.426C90.228,164.855,90.211,163.857,90.031,163.867z"/>
		</g>
	</g>
	<g>
		<g>
			<path fill="#7E8C8F" d="M51.697,136.534c-4.454,0.24-4.495,7.259-0.018,7.5C56.129,144.273,56.158,136.774,51.697,136.534
				c-0.188-0.01-0.224,0.989-0.018,1c1.281,0.069,2.299,0.69,2.894,1.838c1.05,2.028-1.256,3.575-2.876,3.662
				c-1.251,0.067-2.344-0.777-2.894-1.838c-1.05-2.028,1.256-3.575,2.876-3.662C51.894,137.522,51.877,136.524,51.697,136.534z"/>
		</g>
	</g>
	<g>
		<g>
			<path fill="#7E8C8F" d="M142.614,69.2c-5.643,0.304-5.686,9.029-0.018,9.334C148.236,78.838,148.26,69.504,142.614,69.2
				c-0.188-0.01-0.225,0.989-0.018,1c1.654,0.089,2.962,0.896,3.729,2.377c1.402,2.707-1.495,4.838-3.712,4.957
				c-1.615,0.087-3.02-1.009-3.729-2.376c-1.402-2.706,1.494-4.838,3.711-4.958C142.811,70.188,142.794,69.19,142.614,69.2z"/>
		</g>
	</g>
	<g>
		<g>
			<path fill="#7E8C8F" d="M119.031,63.368c-4.887,0.263-4.928,7.901-0.018,8.166C123.894,71.797,123.923,63.632,119.031,63.368
				c-0.188-0.01-0.224,0.989-0.018,1c1.417,0.076,2.54,0.765,3.197,2.033c1.179,2.275-1.343,4.034-3.18,4.133
				c-1.383,0.075-2.59-0.861-3.198-2.034c-1.179-2.276,1.343-4.034,3.18-4.132C119.228,64.356,119.211,63.358,119.031,63.368z"/>
		</g>
	</g>
	<g>
		<g>
			<g>
				<circle fill="#7250D9" cx="144.011" cy="83.078" r="1.136"/>
			</g>
			<g>
				<circle fill="#7250D9" cx="128.308" cy="70.51" r="1.136"/>
			</g>
			<g>
				<circle fill="#7250D9" cx="125.276" cy="75.678" r="1.136"/>
			</g>
			<g>
				<circle fill="#7250D9" cx="126.336" cy="82.949" r="1.136"/>
			</g>
			<g>
				<circle fill="#7250D9" cx="134.296" cy="99.979" r="1.136"/>
			</g>
			<g>
				<circle fill="#7250D9" cx="128.301" cy="101.705" r="1.136"/>
			</g>
			<g>
				<circle fill="#7250D9" cx="114.78" cy="89.428" r="1.136"/>
			</g>
			<g>
				<circle fill="#7250D9" cx="120.904" cy="105.328" r="1.136"/>
			</g>
			<g>
				<circle fill="#7250D9" cx="102.778" cy="88.75" r="1.136"/>
			</g>
			<g>
				<circle fill="#7250D9" cx="94.728" cy="88.771" r="1.136"/>
			</g>
			<g>
				<circle fill="#7250D9" cx="108.583" cy="111.092" r="1.136"/>
			</g>
			<g>
				<circle fill="#7250D9" cx="90.855" cy="98.346" r="1.136"/>
			</g>
			<g>
				<circle fill="#7250D9" cx="78.085" cy="89.339" r="1.136"/>
			</g>
			<g>
				<circle fill="#7250D9" cx="97.297" cy="116.874" r="1.136"/>
			</g>
			<g>
				<circle fill="#7250D9" cx="90.578" cy="116.193" r="1.136"/>
			</g>
			<g>
				<circle fill="#7250D9" cx="93.622" cy="124.821" r="1.136"/>
			</g>
			<g>
				<circle fill="#7250D9" cx="97.639" cy="132.63" r="1.136"/>
			</g>
			<g>
				<circle fill="#7250D9" cx="86.684" cy="128.825" r="1.136"/>
			</g>
			<g>
				<circle fill="#7250D9" cx="74.811" cy="124.441" r="1.136"/>
			</g>
			<g>
				<circle fill="#7250D9" cx="53.879" cy="119.745" r="1.136"/>
			</g>
			<g>
				<circle fill="#7250D9" cx="89.03" cy="143.66" r="1.136"/>
			</g>
			<g>
				<circle fill="#7250D9" cx="83.139" cy="145.115" r="1.136"/>
			</g>
			<g>
				<circle fill="#7250D9" cx="78.551" cy="148.955" r="1.136"/>
			</g>
			<g>
				<circle fill="#7250D9" cx="68.616" cy="149.631" r="1.136"/>
			</g>
			<g>
				<circle fill="#7250D9" cx="82.786" cy="155.354" r="1.136"/>
			</g>
			<g>
				<circle fill="#7250D9" cx="65.328" cy="158.327" r="1.136"/>
			</g>
			<g>
				<circle fill="#7250D9" cx="77.31" cy="164.428" r="1.136"/>
			</g>
		</g>
	</g>
</g>
<g id="Delete">
</g>
</svg>
